<svg width="564" height="197" viewBox="0 0 564 197" fill="none" xmlns="http://www.w3.org/2000/svg">
<g clip-path="url(#clip0_399_23692)">
<rect width="564" height="197" rx="16" fill="url(#paint0_linear_399_23692)" fill-opacity="0.05"/>
<line x1="41.5" y1="-2.18557e-08" x2="41.5" y2="197" stroke="url(#paint1_linear_399_23692)"/>
<line x1="85.3184" y1="-2.18557e-08" x2="85.3184" y2="197" stroke="url(#paint2_linear_399_23692)"/>
<line x1="129.136" y1="-2.18557e-08" x2="129.136" y2="197" stroke="url(#paint3_linear_399_23692)"/>
<line x1="172.955" y1="-2.18557e-08" x2="172.955" y2="197" stroke="url(#paint4_linear_399_23692)"/>
<line x1="216.773" y1="-2.18557e-08" x2="216.773" y2="197" stroke="url(#paint5_linear_399_23692)"/>
<line x1="260.591" y1="-2.18557e-08" x2="260.591" y2="197" stroke="url(#paint6_linear_399_23692)"/>
<line x1="304.409" y1="-2.18557e-08" x2="304.409" y2="197" stroke="url(#paint7_linear_399_23692)"/>
<line x1="348.227" y1="-2.18557e-08" x2="348.227" y2="197" stroke="url(#paint8_linear_399_23692)"/>
<line x1="392.045" y1="-2.18557e-08" x2="392.045" y2="197" stroke="url(#paint9_linear_399_23692)"/>
<line x1="435.864" y1="-2.18557e-08" x2="435.864" y2="197" stroke="url(#paint10_linear_399_23692)"/>
<line x1="479.682" y1="-2.18557e-08" x2="479.682" y2="197" stroke="url(#paint11_linear_399_23692)"/>
<line x1="523.5" y1="-2.18557e-08" x2="523.5" y2="197" stroke="url(#paint12_linear_399_23692)"/>
<line y1="38.5" x2="564" y2="38.5" stroke="url(#paint13_linear_399_23692)"/>
<line y1="77.5" x2="564" y2="77.5" stroke="url(#paint14_linear_399_23692)"/>
<line y1="116.5" x2="564" y2="116.5" stroke="url(#paint15_linear_399_23692)"/>
<line y1="155.5" x2="564" y2="155.5" stroke="url(#paint16_linear_399_23692)"/>
<rect width="480" height="207" transform="translate(31 -5)" fill="#1B1B1C"/>
<path d="M95.5464 30.28C94.8331 30.28 94.1698 30.15 93.5564 29.89C92.9431 29.6233 92.4131 29.25 91.9664 28.77C91.5264 28.2833 91.2031 27.7067 90.9964 27.04L92.7064 26.55C92.9264 27.2167 93.2931 27.7233 93.8064 28.07C94.3198 28.4167 94.8964 28.5867 95.5364 28.58C96.1231 28.5667 96.6298 28.4333 97.0564 28.18C97.4898 27.92 97.8231 27.5667 98.0564 27.12C98.2964 26.6733 98.4164 26.1567 98.4164 25.57C98.4164 24.6767 98.1498 23.9533 97.6164 23.4C97.0831 22.84 96.3831 22.56 95.5164 22.56C95.2764 22.56 95.0231 22.5933 94.7564 22.66C94.4964 22.7267 94.2531 22.82 94.0264 22.94L93.1664 21.53L98.5064 16.7L98.7364 17.3H91.5664V15.6H100.056V17.31L95.5064 21.67L95.4864 21.04C96.4398 20.9733 97.2731 21.13 97.9864 21.51C98.6998 21.89 99.2531 22.4333 99.6464 23.14C100.046 23.8467 100.246 24.6567 100.246 25.57C100.246 26.49 100.04 27.3033 99.6264 28.01C99.2131 28.7167 98.6531 29.2733 97.9464 29.68C97.2398 30.08 96.4398 30.28 95.5464 30.28ZM105.356 30V17.57L102.646 19.21V17.22L105.356 15.6H107.166V30H105.356Z" fill="#7A7A7A"/>
<path d="M166.928 30V17.57L164.218 19.21V17.22L166.928 15.6H168.738V30H166.928Z" fill="#C6C6C6"/>
<path d="M222.152 29.99L222.162 28.39L228.552 22.64C229.085 22.16 229.442 21.7067 229.622 21.28C229.809 20.8467 229.902 20.4033 229.902 19.95C229.902 19.3967 229.775 18.8967 229.522 18.45C229.269 18.0033 228.922 17.65 228.482 17.39C228.049 17.13 227.555 17 227.002 17C226.429 17 225.919 17.1367 225.472 17.41C225.025 17.6767 224.672 18.0333 224.412 18.48C224.159 18.9267 224.035 19.4133 224.042 19.94H222.222C222.222 19.0333 222.432 18.2333 222.852 17.54C223.272 16.84 223.842 16.2933 224.562 15.9C225.289 15.5 226.112 15.3 227.032 15.3C227.925 15.3 228.725 15.5067 229.432 15.92C230.139 16.3267 230.695 16.8833 231.102 17.59C231.515 18.29 231.722 19.0833 231.722 19.97C231.722 20.5967 231.642 21.14 231.482 21.6C231.329 22.06 231.089 22.4867 230.762 22.88C230.435 23.2667 230.025 23.68 229.532 24.12L224.222 28.89L223.992 28.29H231.722V29.99H222.152Z" fill="#C6C6C6"/>
<path d="M288.386 30.28C287.672 30.28 287.009 30.15 286.396 29.89C285.782 29.6233 285.252 29.25 284.806 28.77C284.366 28.2833 284.042 27.7067 283.836 27.04L285.546 26.55C285.766 27.2167 286.132 27.7233 286.646 28.07C287.159 28.4167 287.736 28.5867 288.376 28.58C288.962 28.5667 289.469 28.4333 289.896 28.18C290.329 27.92 290.662 27.5667 290.896 27.12C291.136 26.6733 291.256 26.1567 291.256 25.57C291.256 24.6767 290.989 23.9533 290.456 23.4C289.922 22.84 289.222 22.56 288.356 22.56C288.116 22.56 287.862 22.5933 287.596 22.66C287.336 22.7267 287.092 22.82 286.866 22.94L286.006 21.53L291.346 16.7L291.576 17.3H284.406V15.6H292.896V17.31L288.346 21.67L288.326 21.04C289.279 20.9733 290.112 21.13 290.826 21.51C291.539 21.89 292.092 22.4333 292.486 23.14C292.886 23.8467 293.086 24.6567 293.086 25.57C293.086 26.49 292.879 27.3033 292.466 28.01C292.052 28.7167 291.492 29.2733 290.786 29.68C290.079 30.08 289.279 30.28 288.386 30.28Z" fill="#C6C6C6"/>
<path d="M351.563 30V27.35H344.943V25.66L349.693 15.6H351.713L346.963 25.66H351.563V21.61H353.363V25.66H354.863V27.35H353.363V30H351.563Z" fill="#C6C6C6"/>
<path d="M411.487 30.3C410.747 30.3 410.057 30.1467 409.417 29.84C408.783 29.5333 408.24 29.1133 407.787 28.58C407.34 28.04 407.02 27.42 406.827 26.72L408.537 26.26C408.657 26.7333 408.87 27.1433 409.177 27.49C409.483 27.83 409.84 28.0967 410.247 28.29C410.66 28.4767 411.09 28.57 411.537 28.57C412.123 28.57 412.65 28.43 413.117 28.15C413.59 27.8633 413.963 27.4867 414.237 27.02C414.51 26.5467 414.647 26.03 414.647 25.47C414.647 24.89 414.503 24.3667 414.217 23.9C413.937 23.4267 413.56 23.0533 413.087 22.78C412.613 22.5067 412.097 22.37 411.537 22.37C410.903 22.37 410.36 22.5033 409.907 22.77C409.46 23.03 409.107 23.35 408.847 23.73L407.267 23.13L407.707 15.6H415.437V17.29H408.567L409.357 16.55L408.987 22.58L408.597 22.07C408.997 21.6433 409.473 21.3133 410.027 21.08C410.587 20.8467 411.157 20.73 411.737 20.73C412.63 20.73 413.43 20.94 414.137 21.36C414.843 21.7733 415.403 22.34 415.817 23.06C416.23 23.7733 416.437 24.5767 416.437 25.47C416.437 26.3567 416.21 27.1667 415.757 27.9C415.303 28.6267 414.7 29.21 413.947 29.65C413.2 30.0833 412.38 30.3 411.487 30.3Z" fill="#C6C6C6"/>
<path d="M472.888 30.3C471.975 30.3 471.145 30.08 470.398 29.64C469.658 29.2 469.068 28.6 468.628 27.84C468.195 27.0733 467.978 26.21 467.978 25.25V20.46C467.978 19.4533 468.195 18.5633 468.628 17.79C469.068 17.01 469.668 16.4033 470.428 15.97C471.195 15.53 472.068 15.31 473.048 15.31C473.842 15.31 474.578 15.4733 475.258 15.8C475.945 16.12 476.522 16.5833 476.988 17.19L475.658 18.37C475.372 17.95 474.998 17.6167 474.538 17.37C474.078 17.1233 473.582 17 473.048 17C472.415 17 471.852 17.1533 471.358 17.46C470.872 17.76 470.488 18.16 470.208 18.66C469.928 19.1533 469.788 19.6867 469.788 20.26V23.15L469.398 22.71C469.818 22.11 470.352 21.63 470.998 21.27C471.645 20.91 472.345 20.73 473.098 20.73C473.992 20.73 474.792 20.94 475.498 21.36C476.212 21.78 476.772 22.35 477.178 23.07C477.592 23.7833 477.798 24.5867 477.798 25.48C477.798 26.3733 477.575 27.1833 477.128 27.91C476.682 28.6367 476.085 29.2167 475.338 29.65C474.598 30.0833 473.782 30.3 472.888 30.3ZM472.888 28.58C473.462 28.58 473.985 28.4433 474.458 28.17C474.932 27.89 475.305 27.5167 475.578 27.05C475.858 26.5767 475.998 26.0533 475.998 25.48C475.998 24.9067 475.858 24.3833 475.578 23.91C475.305 23.4367 474.932 23.0633 474.458 22.79C473.992 22.51 473.472 22.37 472.898 22.37C472.325 22.37 471.802 22.51 471.328 22.79C470.862 23.0633 470.488 23.4367 470.208 23.91C469.928 24.3833 469.788 24.9067 469.788 25.48C469.788 26.0467 469.925 26.5667 470.198 27.04C470.478 27.5067 470.852 27.88 471.318 28.16C471.792 28.44 472.315 28.58 472.888 28.58Z" fill="#C6C6C6"/>
<path d="M101.478 68L106.658 55.31H100.118V53.6H108.568V55.31L103.398 68H101.478Z" fill="#C6C6C6"/>
<path d="M165.226 68.3C164.306 68.3 163.493 68.1167 162.786 67.75C162.08 67.3767 161.526 66.86 161.126 66.2C160.726 65.54 160.526 64.77 160.526 63.89C160.526 63.03 160.73 62.2533 161.136 61.56C161.55 60.8667 162.17 60.3333 162.996 59.96L162.966 60.61C162.293 60.2833 161.776 59.8233 161.416 59.23C161.056 58.63 160.876 57.9667 160.876 57.24C160.876 56.4267 161.063 55.7267 161.436 55.14C161.81 54.5533 162.323 54.1 162.976 53.78C163.63 53.46 164.38 53.3 165.226 53.3C166.073 53.3 166.823 53.46 167.476 53.78C168.13 54.1 168.643 54.5533 169.016 55.14C169.39 55.7267 169.576 56.4267 169.576 57.24C169.576 57.9667 169.406 58.6267 169.066 59.22C168.726 59.8067 168.203 60.27 167.496 60.61L167.456 59.97C168.283 60.33 168.903 60.86 169.316 61.56C169.736 62.2533 169.946 63.03 169.946 63.89C169.946 64.77 169.743 65.54 169.336 66.2C168.936 66.86 168.38 67.3767 167.666 67.75C166.96 68.1167 166.146 68.3 165.226 68.3ZM165.226 66.6C166.066 66.6 166.746 66.37 167.266 65.91C167.793 65.4433 168.056 64.77 168.056 63.89C168.056 63.0033 167.796 62.33 167.276 61.87C166.763 61.4033 166.08 61.17 165.226 61.17C164.38 61.17 163.696 61.4033 163.176 61.87C162.663 62.33 162.406 63.0033 162.406 63.89C162.406 64.77 162.666 65.4433 163.186 65.91C163.706 66.37 164.386 66.6 165.226 66.6ZM165.226 59.46C165.96 59.46 166.553 59.2767 167.006 58.91C167.46 58.5367 167.686 57.98 167.686 57.24C167.686 56.5 167.46 55.9467 167.006 55.58C166.553 55.2067 165.96 55.02 165.226 55.02C164.5 55.02 163.906 55.2067 163.446 55.58C162.993 55.9467 162.766 56.5 162.766 57.24C162.766 57.98 162.993 58.5367 163.446 58.91C163.906 59.2767 164.5 59.46 165.226 59.46Z" fill="#C6C6C6"/>
<path d="M226.403 53.31C227.323 53.31 228.153 53.53 228.893 53.97C229.633 54.41 230.219 55.01 230.653 55.77C231.093 56.53 231.313 57.3933 231.313 58.36V63.15C231.313 64.1567 231.096 65.0467 230.663 65.82C230.229 66.5933 229.629 67.2 228.863 67.64C228.103 68.08 227.229 68.3 226.243 68.3C225.456 68.3 224.719 68.1367 224.033 67.81C223.353 67.4833 222.776 67.02 222.303 66.42L223.633 65.24C223.926 65.6533 224.303 65.9867 224.763 66.24C225.223 66.4867 225.716 66.61 226.243 66.61C226.883 66.61 227.446 66.4567 227.933 66.15C228.426 65.8433 228.809 65.4433 229.083 64.95C229.363 64.4567 229.503 63.9233 229.503 63.35V60.46L229.893 60.9C229.479 61.5 228.949 61.98 228.303 62.34C227.656 62.7 226.953 62.88 226.193 62.88C225.299 62.88 224.499 62.67 223.793 62.25C223.086 61.83 222.526 61.2633 222.113 60.55C221.699 59.83 221.493 59.0233 221.493 58.13C221.493 57.2367 221.716 56.4267 222.163 55.7C222.609 54.9667 223.203 54.3867 223.943 53.96C224.689 53.5267 225.509 53.31 226.403 53.31ZM226.403 55.03C225.829 55.03 225.306 55.17 224.833 55.45C224.366 55.7233 223.993 56.0967 223.713 56.57C223.433 57.0367 223.293 57.5567 223.293 58.13C223.293 58.7033 223.429 59.2267 223.703 59.7C223.983 60.1667 224.356 60.54 224.823 60.82C225.296 61.1 225.819 61.24 226.393 61.24C226.966 61.24 227.489 61.1 227.963 60.82C228.436 60.54 228.809 60.1667 229.083 59.7C229.363 59.2267 229.503 58.7033 229.503 58.13C229.503 57.5633 229.363 57.0467 229.083 56.58C228.809 56.1067 228.436 55.73 227.963 55.45C227.496 55.17 226.976 55.03 226.403 55.03Z" fill="#C6C6C6"/>
<path d="M277.551 68V55.57L274.841 57.21V55.22L277.551 53.6H279.361V68H277.551ZM288.026 68.3C287.093 68.3 286.26 68.09 285.526 67.67C284.8 67.2433 284.223 66.6667 283.796 65.94C283.376 65.2067 283.166 64.3733 283.166 63.44V58.16C283.166 57.2267 283.376 56.3933 283.796 55.66C284.223 54.9267 284.8 54.35 285.526 53.93C286.26 53.51 287.093 53.3 288.026 53.3C288.96 53.3 289.793 53.51 290.526 53.93C291.26 54.35 291.836 54.9267 292.256 55.66C292.676 56.3933 292.886 57.2267 292.886 58.16V63.44C292.886 64.3733 292.676 65.2067 292.256 65.94C291.836 66.6667 291.26 67.2433 290.526 67.67C289.793 68.09 288.96 68.3 288.026 68.3ZM288.026 66.59C288.593 66.59 289.106 66.4533 289.566 66.18C290.026 65.9067 290.393 65.54 290.666 65.08C290.94 64.6133 291.076 64.1 291.076 63.54V58.05C291.076 57.4833 290.94 56.97 290.666 56.51C290.393 56.05 290.026 55.6833 289.566 55.41C289.106 55.1367 288.593 55 288.026 55C287.466 55 286.953 55.1367 286.486 55.41C286.026 55.6833 285.66 56.05 285.386 56.51C285.113 56.97 284.976 57.4833 284.976 58.05V63.54C284.976 64.1 285.113 64.6133 285.386 65.08C285.66 65.54 286.026 65.9067 286.486 66.18C286.953 66.4533 287.466 66.59 288.026 66.59Z" fill="#C6C6C6"/>
<path d="M343.517 68V55.57L340.807 57.21V55.22L343.517 53.6H345.327V68H343.517ZM351.642 68V55.57L348.932 57.21V55.22L351.642 53.6H353.452V68H351.642Z" fill="#C6C6C6"/>
<path d="M401.651 68V55.57L398.941 57.21V55.22L401.651 53.6H403.461V68H401.651ZM406.866 67.99L406.876 66.39L413.266 60.64C413.799 60.16 414.156 59.7067 414.336 59.28C414.523 58.8467 414.616 58.4033 414.616 57.95C414.616 57.3967 414.489 56.8967 414.236 56.45C413.983 56.0033 413.636 55.65 413.196 55.39C412.763 55.13 412.269 55 411.716 55C411.143 55 410.633 55.1367 410.186 55.41C409.739 55.6767 409.386 56.0333 409.126 56.48C408.873 56.9267 408.749 57.4133 408.756 57.94H406.936C406.936 57.0333 407.146 56.2333 407.566 55.54C407.986 54.84 408.556 54.2933 409.276 53.9C410.003 53.5 410.826 53.3 411.746 53.3C412.639 53.3 413.439 53.5067 414.146 53.92C414.853 54.3267 415.409 54.8833 415.816 55.59C416.229 56.29 416.436 57.0833 416.436 57.97C416.436 58.5967 416.356 59.14 416.196 59.6C416.043 60.06 415.803 60.4867 415.476 60.88C415.149 61.2667 414.739 61.68 414.246 62.12L408.936 66.89L408.706 66.29H416.436V67.99H406.866Z" fill="#C6C6C6"/>
<path d="M463.535 68V55.57L460.825 57.21V55.22L463.535 53.6H465.345V68H463.535ZM473.1 68.28C472.387 68.28 471.723 68.15 471.11 67.89C470.497 67.6233 469.967 67.25 469.52 66.77C469.08 66.2833 468.757 65.7067 468.55 65.04L470.26 64.55C470.48 65.2167 470.847 65.7233 471.36 66.07C471.873 66.4167 472.45 66.5867 473.09 66.58C473.677 66.5667 474.183 66.4333 474.61 66.18C475.043 65.92 475.377 65.5667 475.61 65.12C475.85 64.6733 475.97 64.1567 475.97 63.57C475.97 62.6767 475.703 61.9533 475.17 61.4C474.637 60.84 473.937 60.56 473.07 60.56C472.83 60.56 472.577 60.5933 472.31 60.66C472.05 60.7267 471.807 60.82 471.58 60.94L470.72 59.53L476.06 54.7L476.29 55.3H469.12V53.6H477.61V55.31L473.06 59.67L473.04 59.04C473.993 58.9733 474.827 59.13 475.54 59.51C476.253 59.89 476.807 60.4333 477.2 61.14C477.6 61.8467 477.8 62.6567 477.8 63.57C477.8 64.49 477.593 65.3033 477.18 66.01C476.767 66.7167 476.207 67.2733 475.5 67.68C474.793 68.08 473.993 68.28 473.1 68.28Z" fill="#C6C6C6"/>
<path d="M93.4424 106V93.57L90.7324 95.21V93.22L93.4424 91.6H95.2524V106H93.4424ZM105.277 106V103.35H98.6574V101.66L103.407 91.6H105.427L100.677 101.66H105.277V97.61H107.077V101.66H108.577V103.35H107.077V106H105.277Z" fill="#C6C6C6"/>
<path d="M155.326 106V93.57L152.616 95.21V93.22L155.326 91.6H157.136V106H155.326ZM165.201 106.3C164.461 106.3 163.771 106.147 163.131 105.84C162.498 105.533 161.954 105.113 161.501 104.58C161.054 104.04 160.734 103.42 160.541 102.72L162.251 102.26C162.371 102.733 162.584 103.143 162.891 103.49C163.198 103.83 163.554 104.097 163.961 104.29C164.374 104.477 164.804 104.57 165.251 104.57C165.838 104.57 166.364 104.43 166.831 104.15C167.304 103.863 167.678 103.487 167.951 103.02C168.224 102.547 168.361 102.03 168.361 101.47C168.361 100.89 168.218 100.367 167.931 99.9C167.651 99.4267 167.274 99.0533 166.801 98.78C166.328 98.5067 165.811 98.37 165.251 98.37C164.618 98.37 164.074 98.5033 163.621 98.77C163.174 99.03 162.821 99.35 162.561 99.73L160.981 99.13L161.421 91.6H169.151V93.29H162.281L163.071 92.55L162.701 98.58L162.311 98.07C162.711 97.6433 163.188 97.3133 163.741 97.08C164.301 96.8467 164.871 96.73 165.451 96.73C166.344 96.73 167.144 96.94 167.851 97.36C168.558 97.7733 169.118 98.34 169.531 99.06C169.944 99.7733 170.151 100.577 170.151 101.47C170.151 102.357 169.924 103.167 169.471 103.9C169.018 104.627 168.414 105.21 167.661 105.65C166.914 106.083 166.094 106.3 165.201 106.3Z" fill="#C6C6C6"/>
<path d="M216.078 106V93.57L213.368 95.21V93.22L216.078 91.6H217.888V106H216.078ZM226.603 106.3C225.689 106.3 224.859 106.08 224.113 105.64C223.373 105.2 222.783 104.6 222.343 103.84C221.909 103.073 221.693 102.21 221.693 101.25V96.46C221.693 95.4533 221.909 94.5633 222.343 93.79C222.783 93.01 223.383 92.4033 224.143 91.97C224.909 91.53 225.783 91.31 226.763 91.31C227.556 91.31 228.293 91.4733 228.973 91.8C229.659 92.12 230.236 92.5833 230.703 93.19L229.373 94.37C229.086 93.95 228.713 93.6167 228.253 93.37C227.793 93.1233 227.296 93 226.763 93C226.129 93 225.566 93.1533 225.073 93.46C224.586 93.76 224.203 94.16 223.923 94.66C223.643 95.1533 223.503 95.6867 223.503 96.26V99.15L223.113 98.71C223.533 98.11 224.066 97.63 224.713 97.27C225.359 96.91 226.059 96.73 226.813 96.73C227.706 96.73 228.506 96.94 229.213 97.36C229.926 97.78 230.486 98.35 230.893 99.07C231.306 99.7833 231.513 100.587 231.513 101.48C231.513 102.373 231.289 103.183 230.843 103.91C230.396 104.637 229.799 105.217 229.053 105.65C228.313 106.083 227.496 106.3 226.603 106.3ZM226.603 104.58C227.176 104.58 227.699 104.443 228.173 104.17C228.646 103.89 229.019 103.517 229.293 103.05C229.573 102.577 229.713 102.053 229.713 101.48C229.713 100.907 229.573 100.383 229.293 99.91C229.019 99.4367 228.646 99.0633 228.173 98.79C227.706 98.51 227.186 98.37 226.613 98.37C226.039 98.37 225.516 98.51 225.043 98.79C224.576 99.0633 224.203 99.4367 223.923 99.91C223.643 100.383 223.503 100.907 223.503 101.48C223.503 102.047 223.639 102.567 223.913 103.04C224.193 103.507 224.566 103.88 225.033 104.16C225.506 104.44 226.029 104.58 226.603 104.58Z" fill="#C6C6C6"/>
<path d="M279.817 106V93.57L277.107 95.21V93.22L279.817 91.6H281.627V106H279.817ZM286.192 106L291.372 93.31H284.832V91.6H293.282V93.31L288.112 106H286.192Z" fill="#C6C6C6"/>
<path d="M339.826 106V93.57L337.116 95.21V93.22L339.826 91.6H341.636V106H339.826ZM349.941 106.3C349.021 106.3 348.207 106.117 347.501 105.75C346.794 105.377 346.241 104.86 345.841 104.2C345.441 103.54 345.241 102.77 345.241 101.89C345.241 101.03 345.444 100.253 345.851 99.56C346.264 98.8667 346.884 98.3333 347.711 97.96L347.681 98.61C347.007 98.2833 346.491 97.8233 346.131 97.23C345.771 96.63 345.591 95.9667 345.591 95.24C345.591 94.4267 345.777 93.7267 346.151 93.14C346.524 92.5533 347.037 92.1 347.691 91.78C348.344 91.46 349.094 91.3 349.941 91.3C350.787 91.3 351.537 91.46 352.191 91.78C352.844 92.1 353.357 92.5533 353.731 93.14C354.104 93.7267 354.291 94.4267 354.291 95.24C354.291 95.9667 354.121 96.6267 353.781 97.22C353.441 97.8067 352.917 98.27 352.211 98.61L352.171 97.97C352.997 98.33 353.617 98.86 354.031 99.56C354.451 100.253 354.661 101.03 354.661 101.89C354.661 102.77 354.457 103.54 354.051 104.2C353.651 104.86 353.094 105.377 352.381 105.75C351.674 106.117 350.861 106.3 349.941 106.3ZM349.941 104.6C350.781 104.6 351.461 104.37 351.981 103.91C352.507 103.443 352.771 102.77 352.771 101.89C352.771 101.003 352.511 100.33 351.991 99.87C351.477 99.4033 350.794 99.17 349.941 99.17C349.094 99.17 348.411 99.4033 347.891 99.87C347.377 100.33 347.121 101.003 347.121 101.89C347.121 102.77 347.381 103.443 347.901 103.91C348.421 104.37 349.101 104.6 349.941 104.6ZM349.941 97.46C350.674 97.46 351.267 97.2767 351.721 96.91C352.174 96.5367 352.401 95.98 352.401 95.24C352.401 94.5 352.174 93.9467 351.721 93.58C351.267 93.2067 350.674 93.02 349.941 93.02C349.214 93.02 348.621 93.2067 348.161 93.58C347.707 93.9467 347.481 94.5 347.481 95.24C347.481 95.98 347.707 96.5367 348.161 96.91C348.621 97.2767 349.214 97.46 349.941 97.46Z" fill="#C6C6C6"/>
<path d="M400.791 106V93.57L398.081 95.21V93.22L400.791 91.6H402.601V106H400.791ZM411.116 91.31C412.036 91.31 412.866 91.53 413.606 91.97C414.346 92.41 414.933 93.01 415.366 93.77C415.806 94.53 416.026 95.3933 416.026 96.36V101.15C416.026 102.157 415.81 103.047 415.376 103.82C414.943 104.593 414.343 105.2 413.576 105.64C412.816 106.08 411.943 106.3 410.956 106.3C410.17 106.3 409.433 106.137 408.746 105.81C408.066 105.483 407.49 105.02 407.016 104.42L408.346 103.24C408.64 103.653 409.016 103.987 409.476 104.24C409.936 104.487 410.43 104.61 410.956 104.61C411.596 104.61 412.16 104.457 412.646 104.15C413.14 103.843 413.523 103.443 413.796 102.95C414.076 102.457 414.216 101.923 414.216 101.35V98.46L414.606 98.9C414.193 99.5 413.663 99.98 413.016 100.34C412.37 100.7 411.666 100.88 410.906 100.88C410.013 100.88 409.213 100.67 408.506 100.25C407.8 99.83 407.24 99.2633 406.826 98.55C406.413 97.83 406.206 97.0233 406.206 96.13C406.206 95.2367 406.43 94.4267 406.876 93.7C407.323 92.9667 407.916 92.3867 408.656 91.96C409.403 91.5267 410.223 91.31 411.116 91.31ZM411.116 93.03C410.543 93.03 410.02 93.17 409.546 93.45C409.08 93.7233 408.706 94.0967 408.426 94.57C408.146 95.0367 408.006 95.5567 408.006 96.13C408.006 96.7033 408.143 97.2267 408.416 97.7C408.696 98.1667 409.07 98.54 409.536 98.82C410.01 99.1 410.533 99.24 411.106 99.24C411.68 99.24 412.203 99.1 412.676 98.82C413.15 98.54 413.523 98.1667 413.796 97.7C414.076 97.2267 414.216 96.7033 414.216 96.13C414.216 95.5633 414.076 95.0467 413.796 94.58C413.523 94.1067 413.15 93.73 412.676 93.45C412.21 93.17 411.69 93.03 411.116 93.03Z" fill="#C6C6C6"/>
<path d="M455.918 105.99L455.928 104.39L462.318 98.64C462.851 98.16 463.208 97.7067 463.388 97.28C463.575 96.8467 463.668 96.4033 463.668 95.95C463.668 95.3967 463.541 94.8967 463.288 94.45C463.035 94.0033 462.688 93.65 462.248 93.39C461.815 93.13 461.321 93 460.768 93C460.195 93 459.685 93.1367 459.238 93.41C458.791 93.6767 458.438 94.0333 458.178 94.48C457.925 94.9267 457.801 95.4133 457.808 95.94H455.988C455.988 95.0333 456.198 94.2333 456.618 93.54C457.038 92.84 457.608 92.2933 458.328 91.9C459.055 91.5 459.878 91.3 460.798 91.3C461.691 91.3 462.491 91.5067 463.198 91.92C463.905 92.3267 464.461 92.8833 464.868 93.59C465.281 94.29 465.488 95.0833 465.488 95.97C465.488 96.5967 465.408 97.14 465.248 97.6C465.095 98.06 464.855 98.4867 464.528 98.88C464.201 99.2667 463.791 99.68 463.298 100.12L457.988 104.89L457.758 104.29H465.488V105.99H455.918ZM472.741 106.3C471.807 106.3 470.974 106.09 470.241 105.67C469.514 105.243 468.937 104.667 468.511 103.94C468.091 103.207 467.881 102.373 467.881 101.44V96.16C467.881 95.2267 468.091 94.3933 468.511 93.66C468.937 92.9267 469.514 92.35 470.241 91.93C470.974 91.51 471.807 91.3 472.741 91.3C473.674 91.3 474.507 91.51 475.241 91.93C475.974 92.35 476.551 92.9267 476.971 93.66C477.391 94.3933 477.601 95.2267 477.601 96.16V101.44C477.601 102.373 477.391 103.207 476.971 103.94C476.551 104.667 475.974 105.243 475.241 105.67C474.507 106.09 473.674 106.3 472.741 106.3ZM472.741 104.59C473.307 104.59 473.821 104.453 474.281 104.18C474.741 103.907 475.107 103.54 475.381 103.08C475.654 102.613 475.791 102.1 475.791 101.54V96.05C475.791 95.4833 475.654 94.97 475.381 94.51C475.107 94.05 474.741 93.6833 474.281 93.41C473.821 93.1367 473.307 93 472.741 93C472.181 93 471.667 93.1367 471.201 93.41C470.741 93.6833 470.374 94.05 470.101 94.51C469.827 94.97 469.691 95.4833 469.691 96.05V101.54C469.691 102.1 469.827 102.613 470.101 103.08C470.374 103.54 470.741 103.907 471.201 104.18C471.667 104.453 472.181 104.59 472.741 104.59Z" fill="#C6C6C6"/>
<path d="M90.8839 143.99L90.8939 142.39L97.2839 136.64C97.8173 136.16 98.1739 135.707 98.3539 135.28C98.5406 134.847 98.6339 134.403 98.6339 133.95C98.6339 133.397 98.5073 132.897 98.2539 132.45C98.0006 132.003 97.6539 131.65 97.2139 131.39C96.7806 131.13 96.2873 131 95.7339 131C95.1606 131 94.6506 131.137 94.2039 131.41C93.7573 131.677 93.4039 132.033 93.1439 132.48C92.8906 132.927 92.7673 133.413 92.7739 133.94H90.9539C90.9539 133.033 91.1639 132.233 91.5839 131.54C92.0039 130.84 92.5739 130.293 93.2939 129.9C94.0206 129.5 94.8439 129.3 95.7639 129.3C96.6573 129.3 97.4573 129.507 98.1639 129.92C98.8706 130.327 99.4273 130.883 99.8339 131.59C100.247 132.29 100.454 133.083 100.454 133.97C100.454 134.597 100.374 135.14 100.214 135.6C100.061 136.06 99.8206 136.487 99.4939 136.88C99.1673 137.267 98.7573 137.68 98.2639 138.12L92.9539 142.89L92.7239 142.29H100.454V143.99H90.8839ZM105.356 144V131.57L102.646 133.21V131.22L105.356 129.6H107.166V144H105.356Z" fill="#C6C6C6"/>
<path d="M149.018 143.99L149.028 142.39L155.418 136.64C155.951 136.16 156.308 135.707 156.488 135.28C156.674 134.847 156.768 134.403 156.768 133.95C156.768 133.397 156.641 132.897 156.388 132.45C156.134 132.003 155.788 131.65 155.348 131.39C154.914 131.13 154.421 131 153.868 131C153.294 131 152.784 131.137 152.338 131.41C151.891 131.677 151.538 132.033 151.278 132.48C151.024 132.927 150.901 133.413 150.908 133.94H149.088C149.088 133.033 149.298 132.233 149.718 131.54C150.138 130.84 150.708 130.293 151.428 129.9C152.154 129.5 152.978 129.3 153.898 129.3C154.791 129.3 155.591 129.507 156.298 129.92C157.004 130.327 157.561 130.883 157.968 131.59C158.381 132.29 158.588 133.083 158.588 133.97C158.588 134.597 158.508 135.14 158.348 135.6C158.194 136.06 157.954 136.487 157.628 136.88C157.301 137.267 156.891 137.68 156.398 138.12L151.088 142.89L150.858 142.29H158.588V143.99H149.018ZM160.58 143.99L160.59 142.39L166.98 136.64C167.514 136.16 167.87 135.707 168.05 135.28C168.237 134.847 168.33 134.403 168.33 133.95C168.33 133.397 168.204 132.897 167.95 132.45C167.697 132.003 167.35 131.65 166.91 131.39C166.477 131.13 165.984 131 165.43 131C164.857 131 164.347 131.137 163.9 131.41C163.454 131.677 163.1 132.033 162.84 132.48C162.587 132.927 162.464 133.413 162.47 133.94H160.65C160.65 133.033 160.86 132.233 161.28 131.54C161.7 130.84 162.27 130.293 162.99 129.9C163.717 129.5 164.54 129.3 165.46 129.3C166.354 129.3 167.154 129.507 167.86 129.92C168.567 130.327 169.124 130.883 169.53 131.59C169.944 132.29 170.15 133.083 170.15 133.97C170.15 134.597 170.07 135.14 169.91 135.6C169.757 136.06 169.517 136.487 169.19 136.88C168.864 137.267 168.454 137.68 167.96 138.12L162.65 142.89L162.42 142.29H170.15V143.99H160.58Z" fill="#C6C6C6"/>
<path d="M210.902 143.99L210.912 142.39L217.302 136.64C217.835 136.16 218.192 135.707 218.372 135.28C218.559 134.847 218.652 134.403 218.652 133.95C218.652 133.397 218.525 132.897 218.272 132.45C218.019 132.003 217.672 131.65 217.232 131.39C216.799 131.13 216.305 131 215.752 131C215.179 131 214.669 131.137 214.222 131.41C213.775 131.677 213.422 132.033 213.162 132.48C212.909 132.927 212.785 133.413 212.792 133.94H210.972C210.972 133.033 211.182 132.233 211.602 131.54C212.022 130.84 212.592 130.293 213.312 129.9C214.039 129.5 214.862 129.3 215.782 129.3C216.675 129.3 217.475 129.507 218.182 129.92C218.889 130.327 219.445 130.883 219.852 131.59C220.265 132.29 220.472 133.083 220.472 133.97C220.472 134.597 220.392 135.14 220.232 135.6C220.079 136.06 219.839 136.487 219.512 136.88C219.185 137.267 218.775 137.68 218.282 138.12L212.972 142.89L212.742 142.29H220.472V143.99H210.902ZM226.814 144.28C226.101 144.28 225.438 144.15 224.824 143.89C224.211 143.623 223.681 143.25 223.234 142.77C222.794 142.283 222.471 141.707 222.264 141.04L223.974 140.55C224.194 141.217 224.561 141.723 225.074 142.07C225.588 142.417 226.164 142.587 226.804 142.58C227.391 142.567 227.898 142.433 228.324 142.18C228.758 141.92 229.091 141.567 229.324 141.12C229.564 140.673 229.684 140.157 229.684 139.57C229.684 138.677 229.418 137.953 228.884 137.4C228.351 136.84 227.651 136.56 226.784 136.56C226.544 136.56 226.291 136.593 226.024 136.66C225.764 136.727 225.521 136.82 225.294 136.94L224.434 135.53L229.774 130.7L230.004 131.3H222.834V129.6H231.324V131.31L226.774 135.67L226.754 135.04C227.708 134.973 228.541 135.13 229.254 135.51C229.968 135.89 230.521 136.433 230.914 137.14C231.314 137.847 231.514 138.657 231.514 139.57C231.514 140.49 231.308 141.303 230.894 142.01C230.481 142.717 229.921 143.273 229.214 143.68C228.508 144.08 227.708 144.28 226.814 144.28Z" fill="#C6C6C6"/>
<path d="M272.2 143.99L272.21 142.39L278.6 136.64C279.133 136.16 279.49 135.707 279.67 135.28C279.857 134.847 279.95 134.403 279.95 133.95C279.95 133.397 279.823 132.897 279.57 132.45C279.317 132.003 278.97 131.65 278.53 131.39C278.097 131.13 277.603 131 277.05 131C276.477 131 275.967 131.137 275.52 131.41C275.073 131.677 274.72 132.033 274.46 132.48C274.207 132.927 274.083 133.413 274.09 133.94H272.27C272.27 133.033 272.48 132.233 272.9 131.54C273.32 130.84 273.89 130.293 274.61 129.9C275.337 129.5 276.16 129.3 277.08 129.3C277.973 129.3 278.773 129.507 279.48 129.92C280.187 130.327 280.743 130.883 281.15 131.59C281.563 132.29 281.77 133.083 281.77 133.97C281.77 134.597 281.69 135.14 281.53 135.6C281.377 136.06 281.137 136.487 280.81 136.88C280.483 137.267 280.073 137.68 279.58 138.12L274.27 142.89L274.04 142.29H281.77V143.99H272.2ZM289.992 144V141.35H283.372V139.66L288.122 129.6H290.142L285.392 139.66H289.992V135.61H291.792V139.66H293.292V141.35H291.792V144H289.992Z" fill="#C6C6C6"/>
<path d="M333.693 143.99L333.703 142.39L340.093 136.64C340.626 136.16 340.983 135.707 341.163 135.28C341.35 134.847 341.443 134.403 341.443 133.95C341.443 133.397 341.316 132.897 341.063 132.45C340.81 132.003 340.463 131.65 340.023 131.39C339.59 131.13 339.096 131 338.543 131C337.97 131 337.46 131.137 337.013 131.41C336.566 131.677 336.213 132.033 335.953 132.48C335.7 132.927 335.576 133.413 335.583 133.94H333.763C333.763 133.033 333.973 132.233 334.393 131.54C334.813 130.84 335.383 130.293 336.103 129.9C336.83 129.5 337.653 129.3 338.573 129.3C339.466 129.3 340.266 129.507 340.973 129.92C341.68 130.327 342.236 130.883 342.643 131.59C343.056 132.29 343.263 133.083 343.263 133.97C343.263 134.597 343.183 135.14 343.023 135.6C342.87 136.06 342.63 136.487 342.303 136.88C341.976 137.267 341.566 137.68 341.073 138.12L335.763 142.89L335.533 142.29H343.263V143.99H333.693ZM349.916 144.3C349.176 144.3 348.486 144.147 347.846 143.84C347.212 143.533 346.669 143.113 346.216 142.58C345.769 142.04 345.449 141.42 345.256 140.72L346.966 140.26C347.086 140.733 347.299 141.143 347.606 141.49C347.912 141.83 348.269 142.097 348.676 142.29C349.089 142.477 349.519 142.57 349.966 142.57C350.552 142.57 351.079 142.43 351.546 142.15C352.019 141.863 352.392 141.487 352.666 141.02C352.939 140.547 353.076 140.03 353.076 139.47C353.076 138.89 352.932 138.367 352.646 137.9C352.366 137.427 351.989 137.053 351.516 136.78C351.042 136.507 350.526 136.37 349.966 136.37C349.332 136.37 348.789 136.503 348.336 136.77C347.889 137.03 347.536 137.35 347.276 137.73L345.696 137.13L346.136 129.6H353.866V131.29H346.996L347.786 130.55L347.416 136.58L347.026 136.07C347.426 135.643 347.902 135.313 348.456 135.08C349.016 134.847 349.586 134.73 350.166 134.73C351.059 134.73 351.859 134.94 352.566 135.36C353.272 135.773 353.832 136.34 354.246 137.06C354.659 137.773 354.866 138.577 354.866 139.47C354.866 140.357 354.639 141.167 354.186 141.9C353.732 142.627 353.129 143.21 352.376 143.65C351.629 144.083 350.809 144.3 349.916 144.3Z" fill="#C6C6C6"/>
<path d="M394.444 143.99L394.454 142.39L400.844 136.64C401.377 136.16 401.734 135.707 401.914 135.28C402.101 134.847 402.194 134.403 402.194 133.95C402.194 133.397 402.067 132.897 401.814 132.45C401.561 132.003 401.214 131.65 400.774 131.39C400.341 131.13 399.847 131 399.294 131C398.721 131 398.211 131.137 397.764 131.41C397.317 131.677 396.964 132.033 396.704 132.48C396.451 132.927 396.327 133.413 396.334 133.94H394.514C394.514 133.033 394.724 132.233 395.144 131.54C395.564 130.84 396.134 130.293 396.854 129.9C397.581 129.5 398.404 129.3 399.324 129.3C400.217 129.3 401.017 129.507 401.724 129.92C402.431 130.327 402.987 130.883 403.394 131.59C403.807 132.29 404.014 133.083 404.014 133.97C404.014 134.597 403.934 135.14 403.774 135.6C403.621 136.06 403.381 136.487 403.054 136.88C402.727 137.267 402.317 137.68 401.824 138.12L396.514 142.89L396.284 142.29H404.014V143.99H394.444ZM411.316 144.3C410.403 144.3 409.573 144.08 408.826 143.64C408.086 143.2 407.496 142.6 407.056 141.84C406.623 141.073 406.406 140.21 406.406 139.25V134.46C406.406 133.453 406.623 132.563 407.056 131.79C407.496 131.01 408.096 130.403 408.856 129.97C409.623 129.53 410.496 129.31 411.476 129.31C412.27 129.31 413.006 129.473 413.686 129.8C414.373 130.12 414.95 130.583 415.416 131.19L414.086 132.37C413.8 131.95 413.426 131.617 412.966 131.37C412.506 131.123 412.01 131 411.476 131C410.843 131 410.28 131.153 409.786 131.46C409.3 131.76 408.916 132.16 408.636 132.66C408.356 133.153 408.216 133.687 408.216 134.26V137.15L407.826 136.71C408.246 136.11 408.78 135.63 409.426 135.27C410.073 134.91 410.773 134.73 411.526 134.73C412.42 134.73 413.22 134.94 413.926 135.36C414.64 135.78 415.2 136.35 415.606 137.07C416.02 137.783 416.226 138.587 416.226 139.48C416.226 140.373 416.003 141.183 415.556 141.91C415.11 142.637 414.513 143.217 413.766 143.65C413.026 144.083 412.21 144.3 411.316 144.3ZM411.316 142.58C411.89 142.58 412.413 142.443 412.886 142.17C413.36 141.89 413.733 141.517 414.006 141.05C414.286 140.577 414.426 140.053 414.426 139.48C414.426 138.907 414.286 138.383 414.006 137.91C413.733 137.437 413.36 137.063 412.886 136.79C412.42 136.51 411.9 136.37 411.326 136.37C410.753 136.37 410.23 136.51 409.756 136.79C409.29 137.063 408.916 137.437 408.636 137.91C408.356 138.383 408.216 138.907 408.216 139.48C408.216 140.047 408.353 140.567 408.626 141.04C408.906 141.507 409.28 141.88 409.746 142.16C410.22 142.44 410.743 142.58 411.316 142.58Z" fill="#C6C6C6"/>
<path d="M458.184 143.99L458.194 142.39L464.584 136.64C465.117 136.16 465.474 135.707 465.654 135.28C465.84 134.847 465.934 134.403 465.934 133.95C465.934 133.397 465.807 132.897 465.554 132.45C465.3 132.003 464.954 131.65 464.514 131.39C464.08 131.13 463.587 131 463.034 131C462.46 131 461.95 131.137 461.504 131.41C461.057 131.677 460.704 132.033 460.444 132.48C460.19 132.927 460.067 133.413 460.074 133.94H458.254C458.254 133.033 458.464 132.233 458.884 131.54C459.304 130.84 459.874 130.293 460.594 129.9C461.32 129.5 462.144 129.3 463.064 129.3C463.957 129.3 464.757 129.507 465.464 129.92C466.17 130.327 466.727 130.883 467.134 131.59C467.547 132.29 467.754 133.083 467.754 133.97C467.754 134.597 467.674 135.14 467.514 135.6C467.36 136.06 467.12 136.487 466.794 136.88C466.467 137.267 466.057 137.68 465.564 138.12L460.254 142.89L460.024 142.29H467.754V143.99H458.184ZM470.906 144L476.086 131.31H469.546V129.6H477.996V131.31L472.826 144H470.906Z" fill="#C6C6C6"/>
<path d="M87.1925 181.99L87.2025 180.39L93.5925 174.64C94.1259 174.16 94.4825 173.707 94.6625 173.28C94.8492 172.847 94.9425 172.403 94.9425 171.95C94.9425 171.397 94.8159 170.897 94.5625 170.45C94.3092 170.003 93.9625 169.65 93.5225 169.39C93.0892 169.13 92.5959 169 92.0425 169C91.4692 169 90.9592 169.137 90.5125 169.41C90.0659 169.677 89.7125 170.033 89.4525 170.48C89.1992 170.927 89.0759 171.413 89.0825 171.94H87.2625C87.2625 171.033 87.4725 170.233 87.8925 169.54C88.3125 168.84 88.8825 168.293 89.6025 167.9C90.3292 167.5 91.1525 167.3 92.0725 167.3C92.9659 167.3 93.7659 167.507 94.4725 167.92C95.1792 168.327 95.7359 168.883 96.1425 169.59C96.5559 170.29 96.7625 171.083 96.7625 171.97C96.7625 172.597 96.6825 173.14 96.5225 173.6C96.3692 174.06 96.1292 174.487 95.8025 174.88C95.4759 175.267 95.0659 175.68 94.5725 176.12L89.2625 180.89L89.0325 180.29H96.7625V181.99H87.1925ZM103.655 182.3C102.735 182.3 101.922 182.117 101.215 181.75C100.508 181.377 99.955 180.86 99.555 180.2C99.155 179.54 98.955 178.77 98.955 177.89C98.955 177.03 99.1584 176.253 99.565 175.56C99.9784 174.867 100.598 174.333 101.425 173.96L101.395 174.61C100.722 174.283 100.205 173.823 99.845 173.23C99.485 172.63 99.305 171.967 99.305 171.24C99.305 170.427 99.4917 169.727 99.865 169.14C100.238 168.553 100.752 168.1 101.405 167.78C102.058 167.46 102.808 167.3 103.655 167.3C104.502 167.3 105.252 167.46 105.905 167.78C106.558 168.1 107.072 168.553 107.445 169.14C107.818 169.727 108.005 170.427 108.005 171.24C108.005 171.967 107.835 172.627 107.495 173.22C107.155 173.807 106.632 174.27 105.925 174.61L105.885 173.97C106.712 174.33 107.332 174.86 107.745 175.56C108.165 176.253 108.375 177.03 108.375 177.89C108.375 178.77 108.172 179.54 107.765 180.2C107.365 180.86 106.808 181.377 106.095 181.75C105.388 182.117 104.575 182.3 103.655 182.3ZM103.655 180.6C104.495 180.6 105.175 180.37 105.695 179.91C106.222 179.443 106.485 178.77 106.485 177.89C106.485 177.003 106.225 176.33 105.705 175.87C105.192 175.403 104.508 175.17 103.655 175.17C102.808 175.17 102.125 175.403 101.605 175.87C101.092 176.33 100.835 177.003 100.835 177.89C100.835 178.77 101.095 179.443 101.615 179.91C102.135 180.37 102.815 180.6 103.655 180.6ZM103.655 173.46C104.388 173.46 104.982 173.277 105.435 172.91C105.888 172.537 106.115 171.98 106.115 171.24C106.115 170.5 105.888 169.947 105.435 169.58C104.982 169.207 104.388 169.02 103.655 169.02C102.928 169.02 102.335 169.207 101.875 169.58C101.422 169.947 101.195 170.5 101.195 171.24C101.195 171.98 101.422 172.537 101.875 172.91C102.335 173.277 102.928 173.46 103.655 173.46Z" fill="#C6C6C6"/>
<path d="M148.158 181.99L148.168 180.39L154.558 174.64C155.092 174.16 155.448 173.707 155.628 173.28C155.815 172.847 155.908 172.403 155.908 171.95C155.908 171.397 155.782 170.897 155.528 170.45C155.275 170.003 154.928 169.65 154.488 169.39C154.055 169.13 153.562 169 153.008 169C152.435 169 151.925 169.137 151.478 169.41C151.032 169.677 150.678 170.033 150.418 170.48C150.165 170.927 150.042 171.413 150.048 171.94H148.228C148.228 171.033 148.438 170.233 148.858 169.54C149.278 168.84 149.848 168.293 150.568 167.9C151.295 167.5 152.118 167.3 153.038 167.3C153.932 167.3 154.732 167.507 155.438 167.92C156.145 168.327 156.702 168.883 157.108 169.59C157.522 170.29 157.728 171.083 157.728 171.97C157.728 172.597 157.648 173.14 157.488 173.6C157.335 174.06 157.095 174.487 156.768 174.88C156.442 175.267 156.032 175.68 155.538 176.12L150.228 180.89L149.998 180.29H157.728V181.99H148.158ZM164.831 167.31C165.751 167.31 166.581 167.53 167.321 167.97C168.061 168.41 168.648 169.01 169.081 169.77C169.521 170.53 169.741 171.393 169.741 172.36V177.15C169.741 178.157 169.524 179.047 169.091 179.82C168.658 180.593 168.058 181.2 167.291 181.64C166.531 182.08 165.658 182.3 164.671 182.3C163.884 182.3 163.148 182.137 162.461 181.81C161.781 181.483 161.204 181.02 160.731 180.42L162.061 179.24C162.354 179.653 162.731 179.987 163.191 180.24C163.651 180.487 164.144 180.61 164.671 180.61C165.311 180.61 165.874 180.457 166.361 180.15C166.854 179.843 167.238 179.443 167.511 178.95C167.791 178.457 167.931 177.923 167.931 177.35V174.46L168.321 174.9C167.908 175.5 167.378 175.98 166.731 176.34C166.084 176.7 165.381 176.88 164.621 176.88C163.728 176.88 162.928 176.67 162.221 176.25C161.514 175.83 160.954 175.263 160.541 174.55C160.128 173.83 159.921 173.023 159.921 172.13C159.921 171.237 160.144 170.427 160.591 169.7C161.038 168.967 161.631 168.387 162.371 167.96C163.118 167.527 163.938 167.31 164.831 167.31ZM164.831 169.03C164.258 169.03 163.734 169.17 163.261 169.45C162.794 169.723 162.421 170.097 162.141 170.57C161.861 171.037 161.721 171.557 161.721 172.13C161.721 172.703 161.858 173.227 162.131 173.7C162.411 174.167 162.784 174.54 163.251 174.82C163.724 175.1 164.248 175.24 164.821 175.24C165.394 175.24 165.918 175.1 166.391 174.82C166.864 174.54 167.238 174.167 167.511 173.7C167.791 173.227 167.931 172.703 167.931 172.13C167.931 171.563 167.791 171.047 167.511 170.58C167.238 170.107 166.864 169.73 166.391 169.45C165.924 169.17 165.404 169.03 164.831 169.03Z" fill="#C6C6C6"/>
<path d="M214.295 182.28C213.582 182.28 212.918 182.15 212.305 181.89C211.692 181.623 211.162 181.25 210.715 180.77C210.275 180.283 209.952 179.707 209.745 179.04L211.455 178.55C211.675 179.217 212.042 179.723 212.555 180.07C213.068 180.417 213.645 180.587 214.285 180.58C214.872 180.567 215.378 180.433 215.805 180.18C216.238 179.92 216.572 179.567 216.805 179.12C217.045 178.673 217.165 178.157 217.165 177.57C217.165 176.677 216.898 175.953 216.365 175.4C215.832 174.84 215.132 174.56 214.265 174.56C214.025 174.56 213.772 174.593 213.505 174.66C213.245 174.727 213.002 174.82 212.775 174.94L211.915 173.53L217.255 168.7L217.485 169.3H210.315V167.6H218.805V169.31L214.255 173.67L214.235 173.04C215.188 172.973 216.022 173.13 216.735 173.51C217.448 173.89 218.002 174.433 218.395 175.14C218.795 175.847 218.995 176.657 218.995 177.57C218.995 178.49 218.788 179.303 218.375 180.01C217.962 180.717 217.402 181.273 216.695 181.68C215.988 182.08 215.188 182.28 214.295 182.28ZM226.455 182.3C225.522 182.3 224.688 182.09 223.955 181.67C223.228 181.243 222.652 180.667 222.225 179.94C221.805 179.207 221.595 178.373 221.595 177.44V172.16C221.595 171.227 221.805 170.393 222.225 169.66C222.652 168.927 223.228 168.35 223.955 167.93C224.688 167.51 225.522 167.3 226.455 167.3C227.388 167.3 228.222 167.51 228.955 167.93C229.688 168.35 230.265 168.927 230.685 169.66C231.105 170.393 231.315 171.227 231.315 172.16V177.44C231.315 178.373 231.105 179.207 230.685 179.94C230.265 180.667 229.688 181.243 228.955 181.67C228.222 182.09 227.388 182.3 226.455 182.3ZM226.455 180.59C227.022 180.59 227.535 180.453 227.995 180.18C228.455 179.907 228.822 179.54 229.095 179.08C229.368 178.613 229.505 178.1 229.505 177.54V172.05C229.505 171.483 229.368 170.97 229.095 170.51C228.822 170.05 228.455 169.683 227.995 169.41C227.535 169.137 227.022 169 226.455 169C225.895 169 225.382 169.137 224.915 169.41C224.455 169.683 224.088 170.05 223.815 170.51C223.542 170.97 223.405 171.483 223.405 172.05V177.54C223.405 178.1 223.542 178.613 223.815 179.08C224.088 179.54 224.455 179.907 224.915 180.18C225.382 180.453 225.895 180.59 226.455 180.59Z" fill="#C6C6C6"/>
<path d="M290.071 182V169.57L287.361 171.21V169.22L290.071 167.6H291.881V182H290.071Z" fill="#7A7A7A"/>
<path d="M345.295 181.99L345.305 180.39L351.695 174.64C352.228 174.16 352.585 173.707 352.765 173.28C352.951 172.847 353.045 172.403 353.045 171.95C353.045 171.397 352.918 170.897 352.665 170.45C352.411 170.003 352.065 169.65 351.625 169.39C351.191 169.13 350.698 169 350.145 169C349.571 169 349.061 169.137 348.615 169.41C348.168 169.677 347.815 170.033 347.555 170.48C347.301 170.927 347.178 171.413 347.185 171.94H345.365C345.365 171.033 345.575 170.233 345.995 169.54C346.415 168.84 346.985 168.293 347.705 167.9C348.431 167.5 349.255 167.3 350.175 167.3C351.068 167.3 351.868 167.507 352.575 167.92C353.281 168.327 353.838 168.883 354.245 169.59C354.658 170.29 354.865 171.083 354.865 171.97C354.865 172.597 354.785 173.14 354.625 173.6C354.471 174.06 354.231 174.487 353.905 174.88C353.578 175.267 353.168 175.68 352.675 176.12L347.365 180.89L347.135 180.29H354.865V181.99H345.295Z" fill="#7A7A7A"/>
<path d="M411.528 182.28C410.815 182.28 410.152 182.15 409.538 181.89C408.925 181.623 408.395 181.25 407.948 180.77C407.508 180.283 407.185 179.707 406.978 179.04L408.688 178.55C408.908 179.217 409.275 179.723 409.788 180.07C410.302 180.417 410.878 180.587 411.518 180.58C412.105 180.567 412.612 180.433 413.038 180.18C413.472 179.92 413.805 179.567 414.038 179.12C414.278 178.673 414.398 178.157 414.398 177.57C414.398 176.677 414.132 175.953 413.598 175.4C413.065 174.84 412.365 174.56 411.498 174.56C411.258 174.56 411.005 174.593 410.738 174.66C410.478 174.727 410.235 174.82 410.008 174.94L409.148 173.53L414.488 168.7L414.718 169.3H407.548V167.6H416.038V169.31L411.488 173.67L411.468 173.04C412.422 172.973 413.255 173.13 413.968 173.51C414.682 173.89 415.235 174.433 415.628 175.14C416.028 175.847 416.228 176.657 416.228 177.57C416.228 178.49 416.022 179.303 415.608 180.01C415.195 180.717 414.635 181.273 413.928 181.68C413.222 182.08 412.422 182.28 411.528 182.28Z" fill="#7A7A7A"/>
<path d="M474.706 182V179.35H468.086V177.66L472.836 167.6H474.856L470.106 177.66H474.706V173.61H476.506V177.66H478.006V179.35H476.506V182H474.706Z" fill="#7A7A7A"/>
<g clip-path="url(#clip1_399_23692)">
<path d="M382.442 134.284H373.159L378.044 145.971C378.385 146.782 377.996 147.69 377.218 148.034L372.916 149.875C372.114 150.219 371.215 149.826 370.875 149.04L366.232 137.943L358.649 145.603C357.639 146.624 356 145.837 356 144.498V107.573C356 106.163 357.743 105.476 358.649 106.468L383.535 131.608C384.539 132.569 383.798 134.284 382.442 134.284Z" fill="#3773D5"/>
</g>
<circle cx="356" cy="112" r="40" fill="#3773D5" fill-opacity="0.2"/>
<circle cx="356" cy="112" r="34" fill="#3773D5" fill-opacity="0.2"/>
<circle cx="356" cy="112" r="20" fill="#3773D5" fill-opacity="0.2"/>
<g clip-path="url(#clip2_399_23692)">
<path d="M408.75 71.0784C407.19 71.505 406.25 72.7034 406.25 73.8334C406.25 74.9634 407.19 76.1617 408.75 76.5867V71.0784ZM411.25 79.4134V84.92C412.81 84.495 413.75 83.2967 413.75 82.1667C413.75 81.0367 412.81 79.8384 411.25 79.4134Z" fill="#3773D5"/>
<path fill-rule="evenodd" clip-rule="evenodd" d="M426.667 77.9999C426.667 87.2049 419.205 94.6666 410 94.6666C400.795 94.6666 393.333 87.2049 393.333 77.9999C393.333 68.7949 400.795 61.3333 410 61.3333C419.205 61.3333 426.667 68.7949 426.667 77.9999ZM410 66.7499C410.332 66.7499 410.65 66.8816 410.884 67.116C411.118 67.3505 411.25 67.6684 411.25 67.9999V68.5283C413.967 69.0149 416.25 71.0566 416.25 73.8333C416.25 74.1648 416.118 74.4827 415.884 74.7171C415.65 74.9516 415.332 75.0833 415 75.0833C414.669 75.0833 414.351 74.9516 414.116 74.7171C413.882 74.4827 413.75 74.1648 413.75 73.8333C413.75 72.7033 412.81 71.5049 411.25 71.0783V76.8616C413.967 77.3483 416.25 79.3899 416.25 82.1666C416.25 84.9433 413.967 86.9849 411.25 87.4716V87.9999C411.25 88.3314 411.118 88.6494 410.884 88.8838C410.65 89.1182 410.332 89.2499 410 89.2499C409.669 89.2499 409.351 89.1182 409.116 88.8838C408.882 88.6494 408.75 88.3314 408.75 87.9999V87.4716C406.033 86.9849 403.75 84.9433 403.75 82.1666C403.75 81.8351 403.882 81.5171 404.116 81.2827C404.351 81.0483 404.669 80.9166 405 80.9166C405.332 80.9166 405.65 81.0483 405.884 81.2827C406.118 81.5171 406.25 81.8351 406.25 82.1666C406.25 83.2966 407.19 84.4949 408.75 84.9199V79.1383C406.033 78.6516 403.75 76.6099 403.75 73.8333C403.75 71.0566 406.033 69.0149 408.75 68.5283V67.9999C408.75 67.6684 408.882 67.3505 409.116 67.116C409.351 66.8816 409.669 66.7499 410 66.7499Z" fill="#3773D5"/>
<circle cx="410" cy="78" r="20" fill="#3773D5" fill-opacity="0.2"/>
</g>
<g clip-path="url(#clip3_399_23692)">
<path d="M296.75 145.078C295.19 145.505 294.25 146.703 294.25 147.833C294.25 148.963 295.19 150.162 296.75 150.587V145.078ZM299.25 153.413V158.92C300.81 158.495 301.75 157.297 301.75 156.167C301.75 155.037 300.81 153.838 299.25 153.413Z" fill="#3773D5"/>
<path fill-rule="evenodd" clip-rule="evenodd" d="M314.667 152C314.667 161.205 307.205 168.667 298 168.667C288.795 168.667 281.333 161.205 281.333 152C281.333 142.795 288.795 135.333 298 135.333C307.205 135.333 314.667 142.795 314.667 152ZM298 140.75C298.332 140.75 298.65 140.882 298.884 141.116C299.118 141.35 299.25 141.668 299.25 142V142.528C301.967 143.015 304.25 145.057 304.25 147.833C304.25 148.165 304.118 148.483 303.884 148.717C303.65 148.952 303.332 149.083 303 149.083C302.669 149.083 302.351 148.952 302.116 148.717C301.882 148.483 301.75 148.165 301.75 147.833C301.75 146.703 300.81 145.505 299.25 145.078V150.862C301.967 151.348 304.25 153.39 304.25 156.167C304.25 158.943 301.967 160.985 299.25 161.472V162C299.25 162.331 299.118 162.649 298.884 162.884C298.65 163.118 298.332 163.25 298 163.25C297.669 163.25 297.351 163.118 297.116 162.884C296.882 162.649 296.75 162.331 296.75 162V161.472C294.033 160.985 291.75 158.943 291.75 156.167C291.75 155.835 291.882 155.517 292.116 155.283C292.351 155.048 292.669 154.917 293 154.917C293.332 154.917 293.65 155.048 293.884 155.283C294.118 155.517 294.25 155.835 294.25 156.167C294.25 157.297 295.19 158.495 296.75 158.92V153.138C294.033 152.652 291.75 150.61 291.75 147.833C291.75 145.057 294.033 143.015 296.75 142.528V142C296.75 141.668 296.882 141.35 297.116 141.116C297.351 140.882 297.669 140.75 298 140.75Z" fill="#3773D5"/>
<circle cx="298" cy="152" r="20" fill="#3773D5" fill-opacity="0.2"/>
</g>
<g clip-path="url(#clip4_399_23692)">
<path d="M416.625 146.386C414.909 146.856 413.875 148.174 413.875 149.417C413.875 150.66 414.909 151.978 416.625 152.445V146.386ZM419.375 155.555V161.612C421.091 161.145 422.125 159.826 422.125 158.583C422.125 157.34 421.091 156.022 419.375 155.555Z" fill="#3773D5"/>
<path fill-rule="evenodd" clip-rule="evenodd" d="M436.333 154C436.333 164.126 428.125 172.333 418 172.333C407.874 172.333 399.667 164.126 399.667 154C399.667 143.875 407.874 135.667 418 135.667C428.125 135.667 436.333 143.875 436.333 154ZM418 141.625C418.365 141.625 418.714 141.77 418.972 142.028C419.23 142.286 419.375 142.635 419.375 143V143.581C422.363 144.117 424.875 146.362 424.875 149.417C424.875 149.781 424.73 150.131 424.472 150.389C424.214 150.647 423.865 150.792 423.5 150.792C423.135 150.792 422.785 150.647 422.528 150.389C422.27 150.131 422.125 149.781 422.125 149.417C422.125 148.174 421.091 146.856 419.375 146.386V152.748C422.363 153.283 424.875 155.529 424.875 158.583C424.875 161.638 422.363 163.884 419.375 164.419V165C419.375 165.365 419.23 165.714 418.972 165.972C418.714 166.23 418.365 166.375 418 166.375C417.635 166.375 417.285 166.23 417.028 165.972C416.77 165.714 416.625 165.365 416.625 165V164.419C413.637 163.884 411.125 161.638 411.125 158.583C411.125 158.219 411.27 157.869 411.528 157.611C411.785 157.353 412.135 157.208 412.5 157.208C412.865 157.208 413.214 157.353 413.472 157.611C413.73 157.869 413.875 158.219 413.875 158.583C413.875 159.826 414.909 161.145 416.625 161.612V155.252C413.637 154.717 411.125 152.471 411.125 149.417C411.125 146.362 413.637 144.117 416.625 143.581V143C416.625 142.635 416.77 142.286 417.028 142.028C417.285 141.77 417.635 141.625 418 141.625Z" fill="#3773D5"/>
<circle cx="418" cy="154" r="22" fill="#3773D5" fill-opacity="0.2"/>
</g>
<g clip-path="url(#clip5_399_23692)">
<path d="M361.25 48.8469C360.314 49.1029 359.75 49.8219 359.75 50.4999C359.75 51.1779 360.314 51.8969 361.25 52.1519V48.8469ZM362.75 53.8479V57.1519C363.686 56.8969 364.25 56.1779 364.25 55.4999C364.25 54.8219 363.686 54.1029 362.75 53.8479Z" fill="#3773D5"/>
<path fill-rule="evenodd" clip-rule="evenodd" d="M372 53C372 58.523 367.523 63 362 63C356.477 63 352 58.523 352 53C352 47.477 356.477 43 362 43C367.523 43 372 47.477 372 53ZM362 46.25C362.199 46.25 362.39 46.329 362.53 46.4697C362.671 46.6103 362.75 46.8011 362.75 47V47.317C364.38 47.609 365.75 48.834 365.75 50.5C365.75 50.6989 365.671 50.8897 365.53 51.0303C365.39 51.171 365.199 51.25 365 51.25C364.801 51.25 364.61 51.171 364.47 51.0303C364.329 50.8897 364.25 50.6989 364.25 50.5C364.25 49.822 363.686 49.103 362.75 48.847V52.317C364.38 52.609 365.75 53.834 365.75 55.5C365.75 57.166 364.38 58.391 362.75 58.683V59C362.75 59.1989 362.671 59.3897 362.53 59.5303C362.39 59.671 362.199 59.75 362 59.75C361.801 59.75 361.61 59.671 361.47 59.5303C361.329 59.3897 361.25 59.1989 361.25 59V58.683C359.62 58.391 358.25 57.166 358.25 55.5C358.25 55.3011 358.329 55.1103 358.47 54.9697C358.61 54.829 358.801 54.75 359 54.75C359.199 54.75 359.39 54.829 359.53 54.9697C359.671 55.1103 359.75 55.3011 359.75 55.5C359.75 56.178 360.314 56.897 361.25 57.152V53.683C359.62 53.391 358.25 52.166 358.25 50.5C358.25 48.834 359.62 47.609 361.25 47.317V47C361.25 46.8011 361.329 46.6103 361.47 46.4697C361.61 46.329 361.801 46.25 362 46.25Z" fill="#3773D5"/>
<circle cx="362" cy="53" r="12" fill="#3773D5" fill-opacity="0.2"/>
</g>
</g>
<rect x="1" y="1" width="562" height="195" rx="15" stroke="white" stroke-opacity="0.03" stroke-width="2"/>
<defs>
<linearGradient id="paint0_linear_399_23692" x1="564" y1="99" x2="1.64623e-08" y2="99" gradientUnits="userSpaceOnUse">
<stop stop-color="white" stop-opacity="0"/>
<stop offset="1" stop-color="white"/>
</linearGradient>
<linearGradient id="paint1_linear_399_23692" x1="41.4997" y1="-8.78913e-07" x2="41.5" y2="197" gradientUnits="userSpaceOnUse">
<stop stop-color="white" stop-opacity="0.03"/>
<stop offset="0.515625" stop-color="white" stop-opacity="0.1"/>
<stop offset="1" stop-color="white" stop-opacity="0.03"/>
</linearGradient>
<linearGradient id="paint2_linear_399_23692" x1="85.318" y1="-8.78913e-07" x2="85.3184" y2="197" gradientUnits="userSpaceOnUse">
<stop stop-color="white" stop-opacity="0.03"/>
<stop offset="0.515625" stop-color="white" stop-opacity="0.1"/>
<stop offset="1" stop-color="white" stop-opacity="0.03"/>
</linearGradient>
<linearGradient id="paint3_linear_399_23692" x1="129.136" y1="-8.78913e-07" x2="129.136" y2="197" gradientUnits="userSpaceOnUse">
<stop stop-color="white" stop-opacity="0.03"/>
<stop offset="0.515625" stop-color="white" stop-opacity="0.1"/>
<stop offset="1" stop-color="white" stop-opacity="0.03"/>
</linearGradient>
<linearGradient id="paint4_linear_399_23692" x1="172.954" y1="-8.78913e-07" x2="172.955" y2="197" gradientUnits="userSpaceOnUse">
<stop stop-color="white" stop-opacity="0.03"/>
<stop offset="0.515625" stop-color="white" stop-opacity="0.1"/>
<stop offset="1" stop-color="white" stop-opacity="0.03"/>
</linearGradient>
<linearGradient id="paint5_linear_399_23692" x1="216.773" y1="-8.78913e-07" x2="216.773" y2="197" gradientUnits="userSpaceOnUse">
<stop stop-color="white" stop-opacity="0.03"/>
<stop offset="0.515625" stop-color="white" stop-opacity="0.1"/>
<stop offset="1" stop-color="white" stop-opacity="0.03"/>
</linearGradient>
<linearGradient id="paint6_linear_399_23692" x1="260.59" y1="-8.78913e-07" x2="260.591" y2="197" gradientUnits="userSpaceOnUse">
<stop stop-color="white" stop-opacity="0.03"/>
<stop offset="0.515625" stop-color="white" stop-opacity="0.1"/>
<stop offset="1" stop-color="white" stop-opacity="0.03"/>
</linearGradient>
<linearGradient id="paint7_linear_399_23692" x1="304.409" y1="-8.78913e-07" x2="304.409" y2="197" gradientUnits="userSpaceOnUse">
<stop stop-color="white" stop-opacity="0.03"/>
<stop offset="0.515625" stop-color="white" stop-opacity="0.1"/>
<stop offset="1" stop-color="white" stop-opacity="0.03"/>
</linearGradient>
<linearGradient id="paint8_linear_399_23692" x1="348.227" y1="-8.78913e-07" x2="348.227" y2="197" gradientUnits="userSpaceOnUse">
<stop stop-color="white" stop-opacity="0.03"/>
<stop offset="0.515625" stop-color="white" stop-opacity="0.1"/>
<stop offset="1" stop-color="white" stop-opacity="0.03"/>
</linearGradient>
<linearGradient id="paint9_linear_399_23692" x1="392.045" y1="-8.78913e-07" x2="392.045" y2="197" gradientUnits="userSpaceOnUse">
<stop stop-color="white" stop-opacity="0.03"/>
<stop offset="0.515625" stop-color="white" stop-opacity="0.1"/>
<stop offset="1" stop-color="white" stop-opacity="0.03"/>
</linearGradient>
<linearGradient id="paint10_linear_399_23692" x1="435.863" y1="-8.78913e-07" x2="435.864" y2="197" gradientUnits="userSpaceOnUse">
<stop stop-color="white" stop-opacity="0.03"/>
<stop offset="0.515625" stop-color="white" stop-opacity="0.1"/>
<stop offset="1" stop-color="white" stop-opacity="0.03"/>
</linearGradient>
<linearGradient id="paint11_linear_399_23692" x1="479.681" y1="-8.78913e-07" x2="479.682" y2="197" gradientUnits="userSpaceOnUse">
<stop stop-color="white" stop-opacity="0.03"/>
<stop offset="0.515625" stop-color="white" stop-opacity="0.1"/>
<stop offset="1" stop-color="white" stop-opacity="0.03"/>
</linearGradient>
<linearGradient id="paint12_linear_399_23692" x1="523.5" y1="-8.78913e-07" x2="523.5" y2="197" gradientUnits="userSpaceOnUse">
<stop stop-color="white" stop-opacity="0.03"/>
<stop offset="0.515625" stop-color="white" stop-opacity="0.1"/>
<stop offset="1" stop-color="white" stop-opacity="0.03"/>
</linearGradient>
<linearGradient id="paint13_linear_399_23692" x1="-2.45375e-06" y1="38.5003" x2="564" y2="38.4976" gradientUnits="userSpaceOnUse">
<stop stop-color="white" stop-opacity="0.03"/>
<stop offset="0.515625" stop-color="white" stop-opacity="0.1"/>
<stop offset="1" stop-color="white" stop-opacity="0.03"/>
</linearGradient>
<linearGradient id="paint14_linear_399_23692" x1="-2.45375e-06" y1="77.5003" x2="564" y2="77.4976" gradientUnits="userSpaceOnUse">
<stop stop-color="white" stop-opacity="0.03"/>
<stop offset="0.515625" stop-color="white" stop-opacity="0.1"/>
<stop offset="1" stop-color="white" stop-opacity="0.03"/>
</linearGradient>
<linearGradient id="paint15_linear_399_23692" x1="-2.45375e-06" y1="116.5" x2="564" y2="116.498" gradientUnits="userSpaceOnUse">
<stop stop-color="white" stop-opacity="0.03"/>
<stop offset="0.515625" stop-color="white" stop-opacity="0.1"/>
<stop offset="1" stop-color="white" stop-opacity="0.03"/>
</linearGradient>
<linearGradient id="paint16_linear_399_23692" x1="-2.45375e-06" y1="155.5" x2="564" y2="155.498" gradientUnits="userSpaceOnUse">
<stop stop-color="white" stop-opacity="0.03"/>
<stop offset="0.515625" stop-color="white" stop-opacity="0.1"/>
<stop offset="1" stop-color="white" stop-opacity="0.03"/>
</linearGradient>
<clipPath id="clip0_399_23692">
<rect width="564" height="197" rx="16" fill="white"/>
</clipPath>
<clipPath id="clip1_399_23692">
<rect width="28" height="44" fill="white" transform="translate(356 106)"/>
</clipPath>
<clipPath id="clip2_399_23692">
<rect width="40" height="40" fill="white" transform="translate(390 58)"/>
</clipPath>
<clipPath id="clip3_399_23692">
<rect width="40" height="40" fill="white" transform="translate(278 132)"/>
</clipPath>
<clipPath id="clip4_399_23692">
<rect width="44" height="44" fill="white" transform="translate(396 132)"/>
</clipPath>
<clipPath id="clip5_399_23692">
<rect width="24" height="24" fill="white" transform="translate(350 41)"/>
</clipPath>
</defs>
</svg>
