<svg width="564" height="197" viewBox="0 0 564 197" fill="none" xmlns="http://www.w3.org/2000/svg">
<g clip-path="url(#clip0_401_24156)">
<rect width="564" height="197" rx="16" fill="url(#paint0_linear_401_24156)" fill-opacity="0.05"/>
<circle cx="282" cy="99" r="200" fill="white" fill-opacity="0.06"/>
<circle cx="282" cy="99" r="200.75" stroke="white" stroke-opacity="0.3" stroke-width="1.5" stroke-dasharray="8 8"/>
<line x1="41.5" y1="-2.18557e-08" x2="41.5" y2="197" stroke="url(#paint1_linear_401_24156)"/>
<line x1="85.3184" y1="-2.18557e-08" x2="85.3184" y2="197" stroke="url(#paint2_linear_401_24156)"/>
<line x1="129.136" y1="-2.18557e-08" x2="129.136" y2="197" stroke="url(#paint3_linear_401_24156)"/>
<line x1="172.955" y1="-2.18557e-08" x2="172.955" y2="197" stroke="url(#paint4_linear_401_24156)"/>
<line x1="216.773" y1="-2.18557e-08" x2="216.773" y2="197" stroke="url(#paint5_linear_401_24156)"/>
<line x1="260.591" y1="-2.18557e-08" x2="260.591" y2="197" stroke="url(#paint6_linear_401_24156)"/>
<line x1="304.409" y1="-2.18557e-08" x2="304.409" y2="197" stroke="url(#paint7_linear_401_24156)"/>
<line x1="348.227" y1="-2.18557e-08" x2="348.227" y2="197" stroke="url(#paint8_linear_401_24156)"/>
<line x1="392.045" y1="-2.18557e-08" x2="392.045" y2="197" stroke="url(#paint9_linear_401_24156)"/>
<line x1="435.864" y1="-2.18557e-08" x2="435.864" y2="197" stroke="url(#paint10_linear_401_24156)"/>
<line x1="479.682" y1="-2.18557e-08" x2="479.682" y2="197" stroke="url(#paint11_linear_401_24156)"/>
<line x1="523.5" y1="-2.18557e-08" x2="523.5" y2="197" stroke="url(#paint12_linear_401_24156)"/>
<line y1="38.5" x2="564" y2="38.5" stroke="url(#paint13_linear_401_24156)"/>
<line y1="77.5" x2="564" y2="77.5" stroke="url(#paint14_linear_401_24156)"/>
<line y1="116.5" x2="564" y2="116.5" stroke="url(#paint15_linear_401_24156)"/>
<line y1="155.5" x2="564" y2="155.5" stroke="url(#paint16_linear_401_24156)"/>
<circle cx="282" cy="99" r="80" fill="#3773D5" fill-opacity="0.2"/>
<circle cx="282" cy="99" r="50" fill="#3773D5" fill-opacity="0.2"/>
<path d="M282.771 85.6562L275.057 91.7813C273.774 92.7969 273.527 94.625 274.499 95.9297C275.527 97.3203 277.527 97.5938 278.906 96.5391L286.819 90.5078C287.377 90.0859 288.174 90.1797 288.612 90.7266C289.05 91.2734 288.947 92.0547 288.389 92.4844L286.723 93.75L300.844 106.5H304.175C306.287 106.5 308 104.82 308 102.75V92.75C308 90.6797 306.287 89 304.175 89H297.744L297.433 88.8047L291.648 85.1719C290.429 84.4062 289.002 84 287.552 84C285.815 84 284.126 84.5859 282.771 85.6562ZM284.588 95.375L280.468 98.5156C277.958 100.438 274.316 99.9375 272.435 97.4062C270.666 95.0234 271.113 91.6953 273.447 89.8438L280.077 84.5859C279.153 84.2031 278.157 84.0078 277.145 84.0078C275.647 84 274.189 84.4375 272.938 85.25L267.2 89H260.825C258.713 89 257 90.6797 257 92.75V102.75C257 104.82 258.713 106.5 260.825 106.5H269.447L276.731 113.016C278.292 114.414 280.707 114.305 282.133 112.773C282.572 112.297 282.867 111.742 283.018 111.164L284.373 112.383C285.927 113.781 288.349 113.68 289.775 112.156C290.134 111.773 290.397 111.328 290.564 110.867C292.11 111.883 294.214 111.672 295.513 110.281C296.939 108.758 296.836 106.383 295.282 104.984L284.588 95.375Z" fill="#3773D5"/>
<g clip-path="url(#clip1_401_24156)">
<circle cx="82" cy="99" r="20" fill="#3773D5"/>
<path d="M91.9734 106.687C90.688 104.431 88.6809 102.674 86.2752 101.697C87.4716 100.8 88.3553 99.5489 88.8011 98.1215C89.247 96.6941 89.2325 95.1626 88.7596 93.7439C88.2867 92.3253 87.3794 91.0914 86.1663 90.217C84.9531 89.3426 83.4956 88.8721 82.0002 88.8721C80.5048 88.8721 79.0473 89.3426 77.8342 90.217C76.621 91.0914 75.7137 92.3253 75.2409 93.7439C74.768 95.1626 74.7534 96.6941 75.1993 98.1215C75.6452 99.5489 76.5289 100.8 77.7252 101.697C75.3195 102.674 73.3125 104.431 72.0271 106.687C71.9475 106.815 71.8944 106.958 71.871 107.107C71.8476 107.256 71.8545 107.408 71.8911 107.555C71.9277 107.701 71.9934 107.838 72.0842 107.959C72.175 108.079 72.289 108.18 72.4196 108.256C72.5502 108.331 72.6946 108.379 72.8443 108.398C72.994 108.417 73.1458 108.405 73.2909 108.363C73.4359 108.322 73.5711 108.252 73.6885 108.157C73.8059 108.063 73.9031 107.945 73.9743 107.812C75.673 104.876 78.673 103.125 82.0002 103.125C85.3274 103.125 88.3274 104.877 90.0262 107.812C90.1804 108.06 90.425 108.239 90.7083 108.31C90.9916 108.381 91.2914 108.338 91.5443 108.192C91.7972 108.046 91.9833 107.808 92.0634 107.527C92.1434 107.246 92.1112 106.945 91.9734 106.687ZM77.1252 95.9999C77.1252 95.0357 77.4111 94.0932 77.9468 93.2915C78.4825 92.4898 79.2439 91.8649 80.1346 91.496C81.0254 91.127 82.0056 91.0305 82.9513 91.2186C83.8969 91.4067 84.7656 91.871 85.4474 92.5527C86.1292 93.2345 86.5935 94.1032 86.7816 95.0488C86.9697 95.9945 86.8731 96.9747 86.5041 97.8655C86.1352 98.7563 85.5103 99.5176 84.7086 100.053C83.9069 100.589 82.9644 100.875 82.0002 100.875C80.7078 100.873 79.4686 100.359 78.5547 99.4454C77.6408 98.5315 77.1267 97.2924 77.1252 95.9999Z" fill="white"/>
</g>
<g clip-path="url(#clip2_401_24156)">
<circle cx="20" cy="20" r="20" transform="matrix(-1 0 0 1 502 79)" fill="#3773D5"/>
<path d="M481.099 94.0164C479.976 94.3236 479.299 95.1864 479.299 96C479.299 96.8136 479.976 97.6764 481.099 97.9824V94.0164ZM482.899 100.018V103.982C484.022 103.676 484.699 102.814 484.699 102C484.699 101.186 484.022 100.324 482.899 100.018Z" fill="white"/>
<path fill-rule="evenodd" clip-rule="evenodd" d="M494 99C494 105.628 488.628 111 482 111C475.372 111 470 105.628 470 99C470 92.3724 475.372 87 482 87C488.628 87 494 92.3724 494 99ZM482 90.9C482.239 90.9 482.468 90.9948 482.636 91.1636C482.805 91.3324 482.9 91.5613 482.9 91.8V92.1804C484.856 92.5308 486.5 94.0008 486.5 96C486.5 96.2387 486.405 96.4676 486.236 96.6364C486.068 96.8052 485.839 96.9 485.6 96.9C485.361 96.9 485.132 96.8052 484.964 96.6364C484.795 96.4676 484.7 96.2387 484.7 96C484.7 95.1864 484.023 94.3236 482.9 94.0164V98.1804C484.856 98.5308 486.5 100.001 486.5 102C486.5 103.999 484.856 105.469 482.9 105.82V106.2C482.9 106.439 482.805 106.668 482.636 106.836C482.468 107.005 482.239 107.1 482 107.1C481.761 107.1 481.532 107.005 481.364 106.836C481.195 106.668 481.1 106.439 481.1 106.2V105.82C479.144 105.469 477.5 103.999 477.5 102C477.5 101.761 477.595 101.532 477.764 101.364C477.932 101.195 478.161 101.1 478.4 101.1C478.639 101.1 478.868 101.195 479.036 101.364C479.205 101.532 479.3 101.761 479.3 102C479.3 102.814 479.977 103.676 481.1 103.982V99.8196C479.144 99.4692 477.5 97.9992 477.5 96C477.5 94.0008 479.144 92.5308 481.1 92.1804V91.8C481.1 91.5613 481.195 91.3324 481.364 91.1636C481.532 90.9948 481.761 90.9 482 90.9Z" fill="white"/>
</g>
<g clip-path="url(#clip3_401_24156)">
<circle cx="98" cy="176" r="20" fill="#4B4C4D"/>
<path d="M107.973 183.687C106.688 181.431 104.681 179.674 102.275 178.697C103.472 177.8 104.355 176.549 104.801 175.122C105.247 173.694 105.232 172.163 104.76 170.744C104.287 169.325 103.379 168.091 102.166 167.217C100.953 166.343 99.4956 165.872 98.0002 165.872C96.5048 165.872 95.0473 166.343 93.8342 167.217C92.621 168.091 91.7137 169.325 91.2409 170.744C90.768 172.163 90.7534 173.694 91.1993 175.122C91.6452 176.549 92.5289 177.8 93.7252 178.697C91.3195 179.674 89.3125 181.431 88.0271 183.687C87.9475 183.815 87.8944 183.958 87.871 184.107C87.8476 184.256 87.8545 184.408 87.8911 184.555C87.9277 184.701 87.9934 184.838 88.0842 184.959C88.175 185.079 88.289 185.18 88.4196 185.256C88.5502 185.331 88.6946 185.379 88.8443 185.398C88.994 185.417 89.1458 185.405 89.2909 185.363C89.4359 185.322 89.5711 185.252 89.6885 185.157C89.8059 185.063 89.9031 184.945 89.9743 184.812C91.673 181.876 94.673 180.125 98.0002 180.125C101.327 180.125 104.327 181.877 106.026 184.812C106.18 185.06 106.425 185.239 106.708 185.31C106.992 185.381 107.291 185.338 107.544 185.192C107.797 185.046 107.983 184.808 108.063 184.527C108.143 184.246 108.111 183.945 107.973 183.687ZM93.1252 173C93.1252 172.036 93.4111 171.093 93.9468 170.291C94.4825 169.49 95.2439 168.865 96.1346 168.496C97.0254 168.127 98.0056 168.03 98.9513 168.219C99.8969 168.407 100.766 168.871 101.447 169.553C102.129 170.235 102.593 171.103 102.782 172.049C102.97 172.994 102.873 173.975 102.504 174.865C102.135 175.756 101.51 176.518 100.709 177.053C99.9069 177.589 98.9644 177.875 98.0002 177.875C96.7078 177.873 95.4686 177.359 94.5547 176.445C93.6408 175.531 93.1267 174.292 93.1252 173Z" fill="white"/>
</g>
<g clip-path="url(#clip4_401_24156)">
<circle cx="20" cy="20" r="20" transform="matrix(-1 0 0 1 486 156)" fill="#4B4C4D"/>
<path d="M465.099 171.016C463.976 171.324 463.299 172.186 463.299 173C463.299 173.814 463.976 174.676 465.099 174.982V171.016ZM466.899 177.018V180.982C468.022 180.676 468.699 179.814 468.699 179C468.699 178.186 468.022 177.324 466.899 177.018Z" fill="white"/>
<path fill-rule="evenodd" clip-rule="evenodd" d="M478 176C478 182.628 472.628 188 466 188C459.372 188 454 182.628 454 176C454 169.372 459.372 164 466 164C472.628 164 478 169.372 478 176ZM466 167.9C466.239 167.9 466.468 167.995 466.636 168.164C466.805 168.332 466.9 168.561 466.9 168.8V169.18C468.856 169.531 470.5 171.001 470.5 173C470.5 173.239 470.405 173.468 470.236 173.636C470.068 173.805 469.839 173.9 469.6 173.9C469.361 173.9 469.132 173.805 468.964 173.636C468.795 173.468 468.7 173.239 468.7 173C468.7 172.186 468.023 171.324 466.9 171.016V175.18C468.856 175.531 470.5 177.001 470.5 179C470.5 180.999 468.856 182.469 466.9 182.82V183.2C466.9 183.439 466.805 183.668 466.636 183.836C466.468 184.005 466.239 184.1 466 184.1C465.761 184.1 465.532 184.005 465.364 183.836C465.195 183.668 465.1 183.439 465.1 183.2V182.82C463.144 182.469 461.5 180.999 461.5 179C461.5 178.761 461.595 178.532 461.764 178.364C461.932 178.195 462.161 178.1 462.4 178.1C462.639 178.1 462.868 178.195 463.036 178.364C463.205 178.532 463.3 178.761 463.3 179C463.3 179.814 463.977 180.676 465.1 180.982V176.82C463.144 176.469 461.5 174.999 461.5 173C461.5 171.001 463.144 169.531 465.1 169.18V168.8C465.1 168.561 465.195 168.332 465.364 168.164C465.532 167.995 465.761 167.9 466 167.9Z" fill="white"/>
</g>
<g clip-path="url(#clip5_401_24156)">
<circle cx="105" cy="16" r="20" fill="#4B4C4D"/>
<path d="M114.973 23.6874C113.688 21.4315 111.681 19.6737 109.275 18.6971C110.472 17.7998 111.355 16.5489 111.801 15.1215C112.247 13.6941 112.232 12.1626 111.76 10.7439C111.287 9.32527 110.379 8.09135 109.166 7.21697C107.953 6.34259 106.496 5.87207 105 5.87207C103.505 5.87207 102.047 6.34259 100.834 7.21697C99.621 8.09135 98.7137 9.32527 98.2409 10.7439C97.768 12.1626 97.7534 13.6941 98.1993 15.1215C98.6452 16.5489 99.5289 17.7998 100.725 18.6971C98.3195 19.6737 96.3125 21.4315 95.0271 23.6874C94.9475 23.8154 94.8944 23.9582 94.871 24.1072C94.8476 24.2562 94.8545 24.4084 94.8911 24.5547C94.9277 24.701 94.9934 24.8384 95.0842 24.9588C95.175 25.0792 95.289 25.1802 95.4196 25.2556C95.5502 25.3311 95.6946 25.3795 95.8443 25.398C95.994 25.4165 96.1458 25.4047 96.2909 25.3634C96.4359 25.322 96.5711 25.252 96.6885 25.1573C96.8059 25.0626 96.9031 24.9453 96.9743 24.8124C98.673 21.8761 101.673 20.1249 105 20.1249C108.327 20.1249 111.327 21.8771 113.026 24.8124C113.18 25.0604 113.425 25.2387 113.708 25.3096C113.992 25.3805 114.291 25.3385 114.544 25.1924C114.797 25.0463 114.983 24.8076 115.063 24.5267C115.143 24.2458 115.111 23.9449 114.973 23.6874ZM100.125 12.9999C100.125 12.0357 100.411 11.0932 100.947 10.2915C101.482 9.48979 102.244 8.86495 103.135 8.49597C104.025 8.12699 105.006 8.03045 105.951 8.21855C106.897 8.40666 107.766 8.87096 108.447 9.55274C109.129 10.2345 109.593 11.1032 109.782 12.0488C109.97 12.9945 109.873 13.9747 109.504 14.8655C109.135 15.7563 108.51 16.5176 107.709 17.0533C106.907 17.589 105.964 17.8749 105 17.8749C103.708 17.8734 102.469 17.3593 101.555 16.4454C100.641 15.5315 100.127 14.2924 100.125 12.9999Z" fill="white"/>
</g>
<g clip-path="url(#clip6_401_24156)">
<circle cx="20" cy="20" r="20" transform="matrix(-1 0 0 1 479 -4)" fill="#4B4C4D"/>
<path d="M458.099 11.0164C456.976 11.3236 456.299 12.1864 456.299 13C456.299 13.8136 456.976 14.6764 458.099 14.9824V11.0164ZM459.899 17.0176V20.9824C461.022 20.6764 461.699 19.8136 461.699 19C461.699 18.1864 461.022 17.3236 459.899 17.0176Z" fill="white"/>
<path fill-rule="evenodd" clip-rule="evenodd" d="M471 16C471 22.6276 465.628 28 459 28C452.372 28 447 22.6276 447 16C447 9.3724 452.372 4 459 4C465.628 4 471 9.3724 471 16ZM459 7.9C459.239 7.9 459.468 7.99482 459.636 8.1636C459.805 8.33239 459.9 8.56131 459.9 8.8V9.1804C461.856 9.5308 463.5 11.0008 463.5 13C463.5 13.2387 463.405 13.4676 463.236 13.6364C463.068 13.8052 462.839 13.9 462.6 13.9C462.361 13.9 462.132 13.8052 461.964 13.6364C461.795 13.4676 461.7 13.2387 461.7 13C461.7 12.1864 461.023 11.3236 459.9 11.0164V15.1804C461.856 15.5308 463.5 17.0008 463.5 19C463.5 20.9992 461.856 22.4692 459.9 22.8196V23.2C459.9 23.4387 459.805 23.6676 459.636 23.8364C459.468 24.0052 459.239 24.1 459 24.1C458.761 24.1 458.532 24.0052 458.364 23.8364C458.195 23.6676 458.1 23.4387 458.1 23.2V22.8196C456.144 22.4692 454.5 20.9992 454.5 19C454.5 18.7613 454.595 18.5324 454.764 18.3636C454.932 18.1948 455.161 18.1 455.4 18.1C455.639 18.1 455.868 18.1948 456.036 18.3636C456.205 18.5324 456.3 18.7613 456.3 19C456.3 19.8136 456.977 20.6764 458.1 20.9824V16.8196C456.144 16.4692 454.5 14.9992 454.5 13C454.5 11.0008 456.144 9.5308 458.1 9.1804V8.8C458.1 8.56131 458.195 8.33239 458.364 8.1636C458.532 7.99482 458.761 7.9 459 7.9Z" fill="white"/>
</g>
<path d="M152 98L141.235 87L138 90.3058L145.532 98L138 105.694L141.235 109L152 98Z" fill="url(#paint17_linear_401_24156)"/>
<path d="M132 98L121.235 87L118 90.3058L125.532 98L118 105.694L121.235 109L132 98Z" fill="url(#paint18_linear_401_24156)"/>
<path d="M172 98L161.235 87L158 90.3058L165.532 98L158 105.694L161.235 109L172 98Z" fill="url(#paint19_linear_401_24156)"/>
<path d="M192 98L181.235 87L178 90.3058L185.532 98L178 105.694L181.235 109L192 98Z" fill="url(#paint20_linear_401_24156)"/>
<path d="M412 98L422.765 87L426 90.3058L418.468 98L426 105.694L422.765 109L412 98Z" fill="url(#paint21_linear_401_24156)"/>
<path d="M432 98L442.765 87L446 90.3058L438.468 98L446 105.694L442.765 109L432 98Z" fill="url(#paint22_linear_401_24156)"/>
<path d="M392 98L402.765 87L406 90.3058L398.468 98L406 105.694L402.765 109L392 98Z" fill="url(#paint23_linear_401_24156)"/>
<path d="M372 98L382.765 87L386 90.3058L378.468 98L386 105.694L382.765 109L372 98Z" fill="url(#paint24_linear_401_24156)"/>
</g>
<rect x="1" y="1" width="562" height="195" rx="15" stroke="white" stroke-opacity="0.03" stroke-width="2"/>
<defs>
<linearGradient id="paint0_linear_401_24156" x1="564" y1="99" x2="1.64623e-08" y2="99" gradientUnits="userSpaceOnUse">
<stop stop-color="white" stop-opacity="0"/>
<stop offset="1" stop-color="white"/>
</linearGradient>
<linearGradient id="paint1_linear_401_24156" x1="41.4997" y1="-8.78913e-07" x2="41.5" y2="197" gradientUnits="userSpaceOnUse">
<stop stop-color="white" stop-opacity="0.03"/>
<stop offset="0.515625" stop-color="white" stop-opacity="0.1"/>
<stop offset="1" stop-color="white" stop-opacity="0.03"/>
</linearGradient>
<linearGradient id="paint2_linear_401_24156" x1="85.318" y1="-8.78913e-07" x2="85.3184" y2="197" gradientUnits="userSpaceOnUse">
<stop stop-color="white" stop-opacity="0.03"/>
<stop offset="0.515625" stop-color="white" stop-opacity="0.1"/>
<stop offset="1" stop-color="white" stop-opacity="0.03"/>
</linearGradient>
<linearGradient id="paint3_linear_401_24156" x1="129.136" y1="-8.78913e-07" x2="129.136" y2="197" gradientUnits="userSpaceOnUse">
<stop stop-color="white" stop-opacity="0.03"/>
<stop offset="0.515625" stop-color="white" stop-opacity="0.1"/>
<stop offset="1" stop-color="white" stop-opacity="0.03"/>
</linearGradient>
<linearGradient id="paint4_linear_401_24156" x1="172.954" y1="-8.78913e-07" x2="172.955" y2="197" gradientUnits="userSpaceOnUse">
<stop stop-color="white" stop-opacity="0.03"/>
<stop offset="0.515625" stop-color="white" stop-opacity="0.1"/>
<stop offset="1" stop-color="white" stop-opacity="0.03"/>
</linearGradient>
<linearGradient id="paint5_linear_401_24156" x1="216.773" y1="-8.78913e-07" x2="216.773" y2="197" gradientUnits="userSpaceOnUse">
<stop stop-color="white" stop-opacity="0.03"/>
<stop offset="0.515625" stop-color="white" stop-opacity="0.1"/>
<stop offset="1" stop-color="white" stop-opacity="0.03"/>
</linearGradient>
<linearGradient id="paint6_linear_401_24156" x1="260.59" y1="-8.78913e-07" x2="260.591" y2="197" gradientUnits="userSpaceOnUse">
<stop stop-color="white" stop-opacity="0.03"/>
<stop offset="0.515625" stop-color="white" stop-opacity="0.1"/>
<stop offset="1" stop-color="white" stop-opacity="0.03"/>
</linearGradient>
<linearGradient id="paint7_linear_401_24156" x1="304.409" y1="-8.78913e-07" x2="304.409" y2="197" gradientUnits="userSpaceOnUse">
<stop stop-color="white" stop-opacity="0.03"/>
<stop offset="0.515625" stop-color="white" stop-opacity="0.1"/>
<stop offset="1" stop-color="white" stop-opacity="0.03"/>
</linearGradient>
<linearGradient id="paint8_linear_401_24156" x1="348.227" y1="-8.78913e-07" x2="348.227" y2="197" gradientUnits="userSpaceOnUse">
<stop stop-color="white" stop-opacity="0.03"/>
<stop offset="0.515625" stop-color="white" stop-opacity="0.1"/>
<stop offset="1" stop-color="white" stop-opacity="0.03"/>
</linearGradient>
<linearGradient id="paint9_linear_401_24156" x1="392.045" y1="-8.78913e-07" x2="392.045" y2="197" gradientUnits="userSpaceOnUse">
<stop stop-color="white" stop-opacity="0.03"/>
<stop offset="0.515625" stop-color="white" stop-opacity="0.1"/>
<stop offset="1" stop-color="white" stop-opacity="0.03"/>
</linearGradient>
<linearGradient id="paint10_linear_401_24156" x1="435.863" y1="-8.78913e-07" x2="435.864" y2="197" gradientUnits="userSpaceOnUse">
<stop stop-color="white" stop-opacity="0.03"/>
<stop offset="0.515625" stop-color="white" stop-opacity="0.1"/>
<stop offset="1" stop-color="white" stop-opacity="0.03"/>
</linearGradient>
<linearGradient id="paint11_linear_401_24156" x1="479.681" y1="-8.78913e-07" x2="479.682" y2="197" gradientUnits="userSpaceOnUse">
<stop stop-color="white" stop-opacity="0.03"/>
<stop offset="0.515625" stop-color="white" stop-opacity="0.1"/>
<stop offset="1" stop-color="white" stop-opacity="0.03"/>
</linearGradient>
<linearGradient id="paint12_linear_401_24156" x1="523.5" y1="-8.78913e-07" x2="523.5" y2="197" gradientUnits="userSpaceOnUse">
<stop stop-color="white" stop-opacity="0.03"/>
<stop offset="0.515625" stop-color="white" stop-opacity="0.1"/>
<stop offset="1" stop-color="white" stop-opacity="0.03"/>
</linearGradient>
<linearGradient id="paint13_linear_401_24156" x1="-2.45375e-06" y1="38.5003" x2="564" y2="38.4976" gradientUnits="userSpaceOnUse">
<stop stop-color="white" stop-opacity="0.03"/>
<stop offset="0.515625" stop-color="white" stop-opacity="0.1"/>
<stop offset="1" stop-color="white" stop-opacity="0.03"/>
</linearGradient>
<linearGradient id="paint14_linear_401_24156" x1="-2.45375e-06" y1="77.5003" x2="564" y2="77.4976" gradientUnits="userSpaceOnUse">
<stop stop-color="white" stop-opacity="0.03"/>
<stop offset="0.515625" stop-color="white" stop-opacity="0.1"/>
<stop offset="1" stop-color="white" stop-opacity="0.03"/>
</linearGradient>
<linearGradient id="paint15_linear_401_24156" x1="-2.45375e-06" y1="116.5" x2="564" y2="116.498" gradientUnits="userSpaceOnUse">
<stop stop-color="white" stop-opacity="0.03"/>
<stop offset="0.515625" stop-color="white" stop-opacity="0.1"/>
<stop offset="1" stop-color="white" stop-opacity="0.03"/>
</linearGradient>
<linearGradient id="paint16_linear_401_24156" x1="-2.45375e-06" y1="155.5" x2="564" y2="155.498" gradientUnits="userSpaceOnUse">
<stop stop-color="white" stop-opacity="0.03"/>
<stop offset="0.515625" stop-color="white" stop-opacity="0.1"/>
<stop offset="1" stop-color="white" stop-opacity="0.03"/>
</linearGradient>
<linearGradient id="paint17_linear_401_24156" x1="152" y1="98" x2="138" y2="98" gradientUnits="userSpaceOnUse">
<stop stop-color="white" stop-opacity="0.4"/>
<stop offset="1" stop-color="white" stop-opacity="0"/>
</linearGradient>
<linearGradient id="paint18_linear_401_24156" x1="132" y1="98" x2="118" y2="98" gradientUnits="userSpaceOnUse">
<stop stop-color="white" stop-opacity="0.2"/>
<stop offset="1" stop-color="white" stop-opacity="0"/>
</linearGradient>
<linearGradient id="paint19_linear_401_24156" x1="172" y1="98" x2="158" y2="98" gradientUnits="userSpaceOnUse">
<stop stop-color="white" stop-opacity="0.7"/>
<stop offset="1" stop-color="white" stop-opacity="0"/>
</linearGradient>
<linearGradient id="paint20_linear_401_24156" x1="192" y1="98" x2="178" y2="98" gradientUnits="userSpaceOnUse">
<stop stop-color="white" stop-opacity="0.8"/>
<stop offset="1" stop-color="white" stop-opacity="0"/>
</linearGradient>
<linearGradient id="paint21_linear_401_24156" x1="412" y1="98" x2="426" y2="98" gradientUnits="userSpaceOnUse">
<stop stop-color="white" stop-opacity="0.4"/>
<stop offset="1" stop-color="white" stop-opacity="0"/>
</linearGradient>
<linearGradient id="paint22_linear_401_24156" x1="432" y1="98" x2="446" y2="98" gradientUnits="userSpaceOnUse">
<stop stop-color="white" stop-opacity="0.2"/>
<stop offset="1" stop-color="white" stop-opacity="0"/>
</linearGradient>
<linearGradient id="paint23_linear_401_24156" x1="392" y1="98" x2="406" y2="98" gradientUnits="userSpaceOnUse">
<stop stop-color="white" stop-opacity="0.7"/>
<stop offset="1" stop-color="white" stop-opacity="0"/>
</linearGradient>
<linearGradient id="paint24_linear_401_24156" x1="372" y1="98" x2="386" y2="98" gradientUnits="userSpaceOnUse">
<stop stop-color="white" stop-opacity="0.8"/>
<stop offset="1" stop-color="white" stop-opacity="0"/>
</linearGradient>
<clipPath id="clip0_401_24156">
<rect width="564" height="197" rx="16" fill="white"/>
</clipPath>
<clipPath id="clip1_401_24156">
<rect width="40" height="40" fill="white" transform="translate(62 79)"/>
</clipPath>
<clipPath id="clip2_401_24156">
<rect width="40" height="40" fill="white" transform="matrix(-1 0 0 1 502 79)"/>
</clipPath>
<clipPath id="clip3_401_24156">
<rect width="40" height="40" fill="white" transform="translate(78 156)"/>
</clipPath>
<clipPath id="clip4_401_24156">
<rect width="40" height="40" fill="white" transform="matrix(-1 0 0 1 486 156)"/>
</clipPath>
<clipPath id="clip5_401_24156">
<rect width="40" height="40" fill="white" transform="translate(85 -4)"/>
</clipPath>
<clipPath id="clip6_401_24156">
<rect width="40" height="40" fill="white" transform="matrix(-1 0 0 1 479 -4)"/>
</clipPath>
</defs>
</svg>
