<svg width="564" height="197" viewBox="0 0 564 197" fill="none" xmlns="http://www.w3.org/2000/svg">
<g clip-path="url(#clip0_399_23660)">
<rect width="564" height="197" rx="16" fill="url(#paint0_linear_399_23660)" fill-opacity="0.05"/>
<circle cx="282" cy="99" r="240" fill="#3773D5" fill-opacity="0.2"/>
<circle cx="282" cy="99" r="200" fill="#3773D5" fill-opacity="0.2"/>
<circle cx="282" cy="99" r="160" fill="#3773D5" fill-opacity="0.2"/>
<line x1="41.5" y1="-2.18557e-08" x2="41.5" y2="197" stroke="url(#paint1_linear_399_23660)"/>
<line x1="85.3184" y1="-2.18557e-08" x2="85.3184" y2="197" stroke="url(#paint2_linear_399_23660)"/>
<line x1="129.136" y1="-2.18557e-08" x2="129.136" y2="197" stroke="url(#paint3_linear_399_23660)"/>
<line x1="172.955" y1="-2.18557e-08" x2="172.955" y2="197" stroke="url(#paint4_linear_399_23660)"/>
<line x1="216.773" y1="-2.18557e-08" x2="216.773" y2="197" stroke="url(#paint5_linear_399_23660)"/>
<line x1="260.591" y1="-2.18557e-08" x2="260.591" y2="197" stroke="url(#paint6_linear_399_23660)"/>
<line x1="304.409" y1="-2.18557e-08" x2="304.409" y2="197" stroke="url(#paint7_linear_399_23660)"/>
<line x1="348.227" y1="-2.18557e-08" x2="348.227" y2="197" stroke="url(#paint8_linear_399_23660)"/>
<line x1="392.045" y1="-2.18557e-08" x2="392.045" y2="197" stroke="url(#paint9_linear_399_23660)"/>
<line x1="435.864" y1="-2.18557e-08" x2="435.864" y2="197" stroke="url(#paint10_linear_399_23660)"/>
<line x1="479.682" y1="-2.18557e-08" x2="479.682" y2="197" stroke="url(#paint11_linear_399_23660)"/>
<line x1="523.5" y1="-2.18557e-08" x2="523.5" y2="197" stroke="url(#paint12_linear_399_23660)"/>
<line y1="38.5" x2="564" y2="38.5" stroke="url(#paint13_linear_399_23660)"/>
<line y1="77.5" x2="564" y2="77.5" stroke="url(#paint14_linear_399_23660)"/>
<line y1="116.5" x2="564" y2="116.5" stroke="url(#paint15_linear_399_23660)"/>
<line y1="155.5" x2="564" y2="155.5" stroke="url(#paint16_linear_399_23660)"/>
<path d="M247.673 42.5287C246.06 38.335 237.672 40.2705 234.769 41.5609L234.769 41.5615C234.446 42.2069 233.801 43.4967 234.124 44.4642C234.446 45.4319 231.866 46.3997 231.866 48.3353C231.866 50.2709 235.414 49.9483 236.059 49.9483C236.705 49.9483 234.769 53.4968 234.769 54.142C234.769 54.7872 236.059 57.0453 234.769 58.9809C233.479 60.9165 233.479 63.4972 233.156 65.1102C232.833 66.7231 232.188 66.4006 231.22 66.4006C230.253 66.4006 228.962 65.7554 228.962 67.0457C228.962 68.3361 228.317 67.6909 227.995 68.3361C227.349 70.2717 229.608 70.9169 230.253 71.5622C230.898 72.2075 233.156 69.6265 233.156 72.8524C233.156 76.0784 231.22 78.0139 229.608 78.6591C227.995 79.3043 228.317 81.2399 227.995 82.8529C227.672 84.4658 223.801 85.4336 221.865 85.4336C219.93 85.4336 219.93 83.8206 218.317 83.8206C216.704 83.8206 217.026 85.4336 217.026 87.0466C217.026 88.6595 218.962 88.9821 218.962 90.5951C218.962 92.2081 220.252 92.2081 220.897 94.1436C221.543 96.0792 219.284 99.3051 218.962 99.9503C218.639 100.596 220.575 101.241 219.607 101.886C218.639 102.531 216.059 105.434 217.672 106.08C219.284 106.725 217.994 108.983 217.672 110.273C217.349 111.564 220.252 112.532 220.575 114.79C220.897 117.048 221.865 117.048 222.833 117.37C223.801 117.693 222.833 119.629 221.865 121.242C220.897 122.855 219.284 124.145 219.93 128.016C220.575 131.887 222.51 133.823 222.833 136.081C223.156 138.339 223.156 140.92 224.769 140.92C226.382 140.92 227.672 147.372 229.285 146.404C230.898 145.436 232.833 147.049 232.833 148.017C232.833 148.985 237.672 147.694 238.963 147.372C240.253 147.049 240.253 148.662 241.543 149.952C242.834 151.243 248.641 151.243 249.608 151.565C250.576 151.888 248.318 155.114 247.35 156.727C246.382 158.34 244.124 160.275 244.124 162.211C244.124 164.147 241.543 168.018 241.543 169.953C241.543 171.889 239.285 176.728 240.253 181.244C241.221 185.76 250.254 181.244 251.544 181.889C252.834 182.534 254.125 182.534 254.447 181.567C254.77 180.599 251.544 180.276 253.479 178.986C257.351 176.083 257.351 179.631 257.673 179.954C257.996 180.276 258.641 179.308 258.964 179.308C259.286 179.308 259.609 180.599 260.254 180.599C260.899 180.599 261.544 179.308 261.867 178.986C262.189 178.663 263.48 180.599 263.802 180.599C264.125 180.599 264.77 179.308 265.093 178.986C265.415 178.663 266.383 180.599 267.351 180.599C268.319 180.599 269.609 181.567 269.609 181.889C269.609 182.212 270.9 183.18 273.48 183.18C276.061 183.18 277.997 184.793 277.997 185.438V187.373C278.534 186.943 279.61 186.276 279.61 187.051C279.61 188.018 278.964 189.309 281.223 188.341C283.481 187.373 283.158 183.825 283.158 183.18C283.158 182.534 284.771 182.534 285.416 183.18C286.061 183.825 287.997 183.502 288.965 183.502C289.933 183.502 291.223 186.083 291.546 186.083C291.868 186.083 294.449 186.406 294.771 186.728C295.094 187.051 297.03 184.147 297.675 183.825C298.32 183.502 299.61 183.502 299.933 182.534C300.256 181.567 306.707 181.889 307.675 181.889C308.643 181.889 307.675 180.921 308.32 179.954C308.966 178.986 312.514 180.599 312.837 181.244C313.159 181.889 316.063 180.599 316.708 180.599C317.353 180.599 319.611 184.47 320.579 184.47C321.547 184.47 320.256 178.018 320.256 177.05C320.256 176.083 316.708 172.211 316.708 170.921C316.708 169.631 320.579 168.018 323.482 167.05C326.386 166.082 327.353 162.856 327.676 161.566C327.999 160.275 328.644 160.598 329.934 160.921C331.225 161.243 332.515 160.921 332.515 158.34C332.515 155.759 329.934 151.888 328.644 151.888C327.353 151.888 326.708 150.92 325.418 149.63C324.128 148.339 323.16 149.307 322.515 147.372C321.869 145.436 319.289 143.501 317.998 143.501C316.708 143.501 315.418 141.242 314.772 139.629C314.127 138.016 311.869 134.79 311.869 134.145C311.869 133.5 313.482 131.242 313.805 130.274C314.127 129.306 308.643 125.113 308.643 124.467C308.643 123.822 307.675 123.177 307.675 121.887C307.675 120.596 309.611 122.855 310.256 123.177C310.901 123.5 312.192 121.564 312.837 120.596C313.482 119.629 313.805 118.983 314.772 118.983C315.74 118.983 317.03 118.661 317.998 118.338C318.966 118.016 320.256 118.338 320.579 117.693C320.902 117.048 322.515 116.725 323.16 116.725C323.805 116.725 324.773 114.144 325.741 113.822C326.708 113.499 327.353 114.79 327.676 113.499C327.999 112.209 329.934 111.564 331.225 111.886C332.515 112.209 333.483 110.919 333.805 110.273C334.128 109.628 336.064 109.628 336.709 109.306C337.225 109.047 339.72 107.478 340.902 106.725C340.365 106.51 339.225 105.951 338.967 105.434C338.644 104.789 340.58 104.144 342.838 104.789C345.096 105.434 342.838 107.047 344.451 109.628C346.064 112.209 349.612 105.112 349.935 101.886C350.258 98.66 349.29 95.1114 348.967 94.4662C348.709 93.9501 346.924 93.3909 346.064 93.1759V89.6273C346.064 88.3369 344.774 86.5089 344.128 85.7562C344.881 84.2508 346.322 81.1108 346.064 80.5947C345.741 79.9495 344.774 78.3365 345.419 76.401C342.515 71.5621 344.451 69.9491 344.774 68.6587C345.096 67.3683 340.257 63.4972 338.322 61.8842C336.386 60.2713 337.676 58.9809 338.967 57.3679C340.257 55.755 340.902 53.1742 340.902 49.9483C340.902 46.7223 339.289 42.206 338.967 39.3027C334.773 39.3027 332.838 36.3993 332.838 36.0767C332.838 35.8186 336.494 35.9692 338.322 36.0767V34.4637L332.192 28.6571L331.87 29.9474L330.902 28.9796C329.934 29.4098 327.87 30.27 327.353 30.27C326.837 30.27 325.418 28.3345 324.773 27.3667H326.386C326.386 26.7215 327.353 24.7859 327.999 24.4633C328.515 24.2053 330.364 24.3558 331.225 24.4633C330.579 23.6031 329.225 21.7535 328.966 21.2374C328.644 20.5922 330.257 19.6244 330.257 18.9792C330.257 18.334 327.999 18.6566 327.353 18.6566C326.708 18.6566 325.741 17.6889 324.45 16.7211C324.45 18.5276 323.375 19.4094 322.837 19.6244L324.128 21.2374L322.837 21.8826L323.482 23.8181H322.515C322.622 24.6784 322.773 26.3344 322.515 26.0763C322.257 25.8182 321.332 23.173 320.902 21.8826L318.966 22.2052C317.676 21.775 314.643 20.9148 312.837 20.9148C311.869 22.8504 308.32 28.0119 307.675 28.3345C307.03 28.6571 301.869 29.3022 300.578 29.3022C299.288 29.3022 297.997 35.4315 297.03 35.4315C296.255 35.4315 294.771 33.711 294.126 32.8508L289.61 34.1412L287.674 31.5604L292.191 28.0119V23.8181L290.255 23.173L287.352 25.4311L281.868 22.2052L279.61 22.5278L277.351 20.9148L274.448 21.56C276.169 19.6244 278.835 15.3017 275.738 13.4951C272.642 11.6886 267.781 12.0972 265.738 12.5274C265.2 11.9897 263.932 10.9145 263.157 10.9145C262.189 10.9145 256.383 8.6563 256.06 11.2371C255.802 13.3017 258.533 16.8287 259.931 18.3341L258.641 21.2375H261.544L259.609 23.173H256.06V26.399H258.641C258.748 26.7216 258.964 28.3345 258.964 32.2057C258.964 37.0446 253.802 36.3994 252.834 41.5609C251.866 46.7225 249.286 46.7224 247.673 42.5287Z" fill="#1B1B1C"/>
<circle cx="291" cy="79" r="20" fill="#3773D5" fill-opacity="0.2"/>
<path d="M292 68L292.001 71.062C293.763 71.2848 295.401 72.0874 296.657 73.3435C297.913 74.5996 298.715 76.2378 298.938 78H302V80L298.938 80.001C298.715 81.7631 297.912 83.401 296.656 84.6569C295.401 85.9128 293.763 86.7153 292.001 86.938L292 90H290V86.938C288.237 86.7155 286.599 85.9131 285.343 84.6572C284.087 83.4013 283.284 81.7632 283.062 80.001L280 80V78H283.062C283.284 76.2376 284.087 74.5993 285.343 73.3432C286.599 72.0871 288.237 71.2846 290 71.062V68H292ZM291 77C290.469 77 289.96 77.2107 289.585 77.5858C289.21 77.9609 289 78.4696 289 79C289 79.5304 289.21 80.0391 289.585 80.4142C289.96 80.7893 290.469 81 291 81C291.53 81 292.039 80.7893 292.414 80.4142C292.789 80.0391 293 79.5304 293 79C293 78.4696 292.789 77.9609 292.414 77.5858C292.039 77.2107 291.53 77 291 77Z" fill="#3773D5"/>
</g>
<rect x="1" y="1" width="562" height="195" rx="15" stroke="white" stroke-opacity="0.03" stroke-width="2"/>
<defs>
<linearGradient id="paint0_linear_399_23660" x1="564" y1="99" x2="1.64623e-08" y2="99" gradientUnits="userSpaceOnUse">
<stop stop-color="white"/>
<stop offset="1" stop-color="white" stop-opacity="0"/>
</linearGradient>
<linearGradient id="paint1_linear_399_23660" x1="41.4997" y1="-8.78913e-07" x2="41.5" y2="197" gradientUnits="userSpaceOnUse">
<stop stop-color="white" stop-opacity="0.03"/>
<stop offset="0.515625" stop-color="white" stop-opacity="0.1"/>
<stop offset="1" stop-color="white" stop-opacity="0.03"/>
</linearGradient>
<linearGradient id="paint2_linear_399_23660" x1="85.318" y1="-8.78913e-07" x2="85.3184" y2="197" gradientUnits="userSpaceOnUse">
<stop stop-color="white" stop-opacity="0.03"/>
<stop offset="0.515625" stop-color="white" stop-opacity="0.1"/>
<stop offset="1" stop-color="white" stop-opacity="0.03"/>
</linearGradient>
<linearGradient id="paint3_linear_399_23660" x1="129.136" y1="-8.78913e-07" x2="129.136" y2="197" gradientUnits="userSpaceOnUse">
<stop stop-color="white" stop-opacity="0.03"/>
<stop offset="0.515625" stop-color="white" stop-opacity="0.1"/>
<stop offset="1" stop-color="white" stop-opacity="0.03"/>
</linearGradient>
<linearGradient id="paint4_linear_399_23660" x1="172.954" y1="-8.78913e-07" x2="172.955" y2="197" gradientUnits="userSpaceOnUse">
<stop stop-color="white" stop-opacity="0.03"/>
<stop offset="0.515625" stop-color="white" stop-opacity="0.1"/>
<stop offset="1" stop-color="white" stop-opacity="0.03"/>
</linearGradient>
<linearGradient id="paint5_linear_399_23660" x1="216.773" y1="-8.78913e-07" x2="216.773" y2="197" gradientUnits="userSpaceOnUse">
<stop stop-color="white" stop-opacity="0.03"/>
<stop offset="0.515625" stop-color="white" stop-opacity="0.1"/>
<stop offset="1" stop-color="white" stop-opacity="0.03"/>
</linearGradient>
<linearGradient id="paint6_linear_399_23660" x1="260.59" y1="-8.78913e-07" x2="260.591" y2="197" gradientUnits="userSpaceOnUse">
<stop stop-color="white" stop-opacity="0.03"/>
<stop offset="0.515625" stop-color="white" stop-opacity="0.1"/>
<stop offset="1" stop-color="white" stop-opacity="0.03"/>
</linearGradient>
<linearGradient id="paint7_linear_399_23660" x1="304.409" y1="-8.78913e-07" x2="304.409" y2="197" gradientUnits="userSpaceOnUse">
<stop stop-color="white" stop-opacity="0.03"/>
<stop offset="0.515625" stop-color="white" stop-opacity="0.1"/>
<stop offset="1" stop-color="white" stop-opacity="0.03"/>
</linearGradient>
<linearGradient id="paint8_linear_399_23660" x1="348.227" y1="-8.78913e-07" x2="348.227" y2="197" gradientUnits="userSpaceOnUse">
<stop stop-color="white" stop-opacity="0.03"/>
<stop offset="0.515625" stop-color="white" stop-opacity="0.1"/>
<stop offset="1" stop-color="white" stop-opacity="0.03"/>
</linearGradient>
<linearGradient id="paint9_linear_399_23660" x1="392.045" y1="-8.78913e-07" x2="392.045" y2="197" gradientUnits="userSpaceOnUse">
<stop stop-color="white" stop-opacity="0.03"/>
<stop offset="0.515625" stop-color="white" stop-opacity="0.1"/>
<stop offset="1" stop-color="white" stop-opacity="0.03"/>
</linearGradient>
<linearGradient id="paint10_linear_399_23660" x1="435.863" y1="-8.78913e-07" x2="435.864" y2="197" gradientUnits="userSpaceOnUse">
<stop stop-color="white" stop-opacity="0.03"/>
<stop offset="0.515625" stop-color="white" stop-opacity="0.1"/>
<stop offset="1" stop-color="white" stop-opacity="0.03"/>
</linearGradient>
<linearGradient id="paint11_linear_399_23660" x1="479.681" y1="-8.78913e-07" x2="479.682" y2="197" gradientUnits="userSpaceOnUse">
<stop stop-color="white" stop-opacity="0.03"/>
<stop offset="0.515625" stop-color="white" stop-opacity="0.1"/>
<stop offset="1" stop-color="white" stop-opacity="0.03"/>
</linearGradient>
<linearGradient id="paint12_linear_399_23660" x1="523.5" y1="-8.78913e-07" x2="523.5" y2="197" gradientUnits="userSpaceOnUse">
<stop stop-color="white" stop-opacity="0.03"/>
<stop offset="0.515625" stop-color="white" stop-opacity="0.1"/>
<stop offset="1" stop-color="white" stop-opacity="0.03"/>
</linearGradient>
<linearGradient id="paint13_linear_399_23660" x1="-2.45375e-06" y1="38.5003" x2="564" y2="38.4976" gradientUnits="userSpaceOnUse">
<stop stop-color="white" stop-opacity="0.03"/>
<stop offset="0.515625" stop-color="white" stop-opacity="0.1"/>
<stop offset="1" stop-color="white" stop-opacity="0.03"/>
</linearGradient>
<linearGradient id="paint14_linear_399_23660" x1="-2.45375e-06" y1="77.5003" x2="564" y2="77.4976" gradientUnits="userSpaceOnUse">
<stop stop-color="white" stop-opacity="0.03"/>
<stop offset="0.515625" stop-color="white" stop-opacity="0.1"/>
<stop offset="1" stop-color="white" stop-opacity="0.03"/>
</linearGradient>
<linearGradient id="paint15_linear_399_23660" x1="-2.45375e-06" y1="116.5" x2="564" y2="116.498" gradientUnits="userSpaceOnUse">
<stop stop-color="white" stop-opacity="0.03"/>
<stop offset="0.515625" stop-color="white" stop-opacity="0.1"/>
<stop offset="1" stop-color="white" stop-opacity="0.03"/>
</linearGradient>
<linearGradient id="paint16_linear_399_23660" x1="-2.45375e-06" y1="155.5" x2="564" y2="155.498" gradientUnits="userSpaceOnUse">
<stop stop-color="white" stop-opacity="0.03"/>
<stop offset="0.515625" stop-color="white" stop-opacity="0.1"/>
<stop offset="1" stop-color="white" stop-opacity="0.03"/>
</linearGradient>
<clipPath id="clip0_399_23660">
<rect width="564" height="197" rx="16" fill="white"/>
</clipPath>
</defs>
</svg>
